<mxfile host="app.diagrams.net" modified="2021-03-30T05:32:08.568Z" agent="5.0 (X11; Linux x86_64) AppleWebKit/537.36 (KHTML, like Gecko) Chrome/89.0.4389.90 Safari/537.36" etag="kClPzs_VhOIfVI0zFPpu" version="14.5.3" type="github" pages="11">
  <diagram id="C5RBs43oDa-KdzZeNtuy" name="login">
    <mxGraphModel dx="1054" dy="605" grid="1" gridSize="10" guides="1" tooltips="1" connect="1" arrows="1" fold="1" page="1" pageScale="1" pageWidth="827" pageHeight="1169" math="0" shadow="0">
      <root>
        <mxCell id="WIyWlLk6GJQsqaUBKTNV-0" />
        <mxCell id="WIyWlLk6GJQsqaUBKTNV-1" parent="WIyWlLk6GJQsqaUBKTNV-0" />
        <mxCell id="tE3NUFGUL5-V3eDfIwcR-2" style="edgeStyle=orthogonalEdgeStyle;rounded=0;orthogonalLoop=1;jettySize=auto;html=1;entryX=0.5;entryY=0;entryDx=0;entryDy=0;shadow=0;fontSize=11;strokeWidth=1;labelBackgroundColor=none;endFill=0;endArrow=block;endSize=8;" parent="WIyWlLk6GJQsqaUBKTNV-1" source="tE3NUFGUL5-V3eDfIwcR-0" target="tE3NUFGUL5-V3eDfIwcR-1" edge="1">
          <mxGeometry relative="1" as="geometry" />
        </mxCell>
        <mxCell id="tE3NUFGUL5-V3eDfIwcR-0" value="Start" style="strokeWidth=1;html=1;shape=mxgraph.flowchart.terminator;whiteSpace=wrap;rounded=1;shadow=0;glass=0;" parent="WIyWlLk6GJQsqaUBKTNV-1" vertex="1">
          <mxGeometry x="40" width="100" height="40" as="geometry" />
        </mxCell>
        <mxCell id="tE3NUFGUL5-V3eDfIwcR-4" style="edgeStyle=orthogonalEdgeStyle;rounded=0;orthogonalLoop=1;jettySize=auto;html=1;shadow=0;fontSize=11;strokeWidth=1;labelBackgroundColor=none;endFill=0;endArrow=block;endSize=8;" parent="WIyWlLk6GJQsqaUBKTNV-1" source="tE3NUFGUL5-V3eDfIwcR-1" target="tE3NUFGUL5-V3eDfIwcR-3" edge="1">
          <mxGeometry relative="1" as="geometry" />
        </mxCell>
        <mxCell id="tE3NUFGUL5-V3eDfIwcR-1" value="Input username&lt;br&gt;dan password" style="shape=parallelogram;html=1;strokeWidth=1;perimeter=parallelogramPerimeter;whiteSpace=wrap;rounded=0;size=0.125;shadow=0;fontSize=11;endFill=0;endArrow=block;endSize=8;" parent="WIyWlLk6GJQsqaUBKTNV-1" vertex="1">
          <mxGeometry y="80" width="180" height="40" as="geometry" />
        </mxCell>
        <mxCell id="tE3NUFGUL5-V3eDfIwcR-6" style="edgeStyle=orthogonalEdgeStyle;rounded=0;orthogonalLoop=1;jettySize=auto;html=1;entryX=0.5;entryY=0;entryDx=0;entryDy=0;entryPerimeter=0;shadow=0;fontSize=11;strokeWidth=1;labelBackgroundColor=none;endFill=0;endArrow=block;endSize=8;" parent="WIyWlLk6GJQsqaUBKTNV-1" source="tE3NUFGUL5-V3eDfIwcR-3" target="tE3NUFGUL5-V3eDfIwcR-5" edge="1">
          <mxGeometry relative="1" as="geometry" />
        </mxCell>
        <mxCell id="tE3NUFGUL5-V3eDfIwcR-3" value="Proses login" style="rounded=0;whiteSpace=wrap;html=1;absoluteArcSize=1;strokeWidth=1;shadow=0;fontSize=11;endFill=0;endArrow=block;endSize=8;" parent="WIyWlLk6GJQsqaUBKTNV-1" vertex="1">
          <mxGeometry x="40" y="160" width="100" height="40" as="geometry" />
        </mxCell>
        <mxCell id="tE3NUFGUL5-V3eDfIwcR-11" value="True" style="edgeStyle=orthogonalEdgeStyle;rounded=0;orthogonalLoop=1;jettySize=auto;html=1;entryX=0.5;entryY=0;entryDx=0;entryDy=0;shadow=0;fontSize=11;strokeWidth=1;labelBackgroundColor=#ffffff;endFill=0;endArrow=block;endSize=8;" parent="WIyWlLk6GJQsqaUBKTNV-1" source="tE3NUFGUL5-V3eDfIwcR-5" target="tE3NUFGUL5-V3eDfIwcR-7" edge="1">
          <mxGeometry relative="1" as="geometry" />
        </mxCell>
        <mxCell id="tE3NUFGUL5-V3eDfIwcR-13" value="False" style="edgeStyle=orthogonalEdgeStyle;rounded=0;orthogonalLoop=1;jettySize=auto;html=1;entryX=0;entryY=0.5;entryDx=0;entryDy=0;shadow=0;fontSize=11;strokeWidth=1;labelBackgroundColor=#ffffff;endFill=0;endArrow=block;endSize=8;jumpStyle=none;" parent="WIyWlLk6GJQsqaUBKTNV-1" source="tE3NUFGUL5-V3eDfIwcR-5" target="tE3NUFGUL5-V3eDfIwcR-12" edge="1">
          <mxGeometry relative="1" as="geometry" />
        </mxCell>
        <mxCell id="tE3NUFGUL5-V3eDfIwcR-5" value="Credentials benar?" style="strokeWidth=1;html=1;shape=mxgraph.flowchart.decision;whiteSpace=wrap;rounded=0;shadow=0;fontSize=11;endFill=0;endArrow=block;endSize=8;" parent="WIyWlLk6GJQsqaUBKTNV-1" vertex="1">
          <mxGeometry x="25" y="240" width="130" height="80" as="geometry" />
        </mxCell>
        <mxCell id="tE3NUFGUL5-V3eDfIwcR-15" style="edgeStyle=orthogonalEdgeStyle;rounded=0;orthogonalLoop=1;jettySize=auto;html=1;entryX=0.5;entryY=0;entryDx=0;entryDy=0;entryPerimeter=0;shadow=0;fontSize=11;strokeWidth=1;labelBackgroundColor=none;endFill=0;endArrow=block;endSize=8;" parent="WIyWlLk6GJQsqaUBKTNV-1" source="tE3NUFGUL5-V3eDfIwcR-7" target="tE3NUFGUL5-V3eDfIwcR-14" edge="1">
          <mxGeometry relative="1" as="geometry" />
        </mxCell>
        <mxCell id="tE3NUFGUL5-V3eDfIwcR-7" value="Token JWT" style="shape=parallelogram;html=1;strokeWidth=1;perimeter=parallelogramPerimeter;whiteSpace=wrap;rounded=0;size=0.23;shadow=0;fontSize=11;endFill=0;endArrow=block;endSize=8;" parent="WIyWlLk6GJQsqaUBKTNV-1" vertex="1">
          <mxGeometry x="40" y="380" width="100" height="60" as="geometry" />
        </mxCell>
        <mxCell id="tE3NUFGUL5-V3eDfIwcR-23" style="edgeStyle=orthogonalEdgeStyle;rounded=0;orthogonalLoop=1;jettySize=auto;html=1;entryX=1;entryY=0.5;entryDx=0;entryDy=0;entryPerimeter=0;shadow=0;labelBackgroundColor=none;endArrow=block;endFill=0;endSize=8;strokeWidth=1;" parent="WIyWlLk6GJQsqaUBKTNV-1" source="tE3NUFGUL5-V3eDfIwcR-12" target="tE3NUFGUL5-V3eDfIwcR-14" edge="1">
          <mxGeometry relative="1" as="geometry">
            <Array as="points">
              <mxPoint x="260" y="500" />
            </Array>
          </mxGeometry>
        </mxCell>
        <mxCell id="tE3NUFGUL5-V3eDfIwcR-12" value="Credentials&lt;br&gt;salah" style="shape=parallelogram;html=1;strokeWidth=1;perimeter=parallelogramPerimeter;whiteSpace=wrap;rounded=0;size=0.23;shadow=0;fontSize=11;endFill=0;endArrow=block;endSize=8;" parent="WIyWlLk6GJQsqaUBKTNV-1" vertex="1">
          <mxGeometry x="220" y="250" width="100" height="60" as="geometry" />
        </mxCell>
        <mxCell id="tE3NUFGUL5-V3eDfIwcR-14" value="End" style="strokeWidth=1;html=1;shape=mxgraph.flowchart.terminator;whiteSpace=wrap;rounded=1;shadow=0;glass=0;" parent="WIyWlLk6GJQsqaUBKTNV-1" vertex="1">
          <mxGeometry x="40" y="480" width="100" height="40" as="geometry" />
        </mxCell>
        <mxCell id="cEXrA34bqkTo5n-bkM3A-0" style="edgeStyle=orthogonalEdgeStyle;rounded=0;orthogonalLoop=1;jettySize=auto;html=1;entryX=0.5;entryY=0;entryDx=0;entryDy=0;shadow=0;fontSize=11;strokeWidth=1;labelBackgroundColor=none;endFill=0;endArrow=block;endSize=8;" parent="WIyWlLk6GJQsqaUBKTNV-1" source="cEXrA34bqkTo5n-bkM3A-1" target="cEXrA34bqkTo5n-bkM3A-3" edge="1">
          <mxGeometry relative="1" as="geometry" />
        </mxCell>
        <mxCell id="cEXrA34bqkTo5n-bkM3A-1" value="Start" style="strokeWidth=1;html=1;shape=mxgraph.flowchart.terminator;whiteSpace=wrap;rounded=0;shadow=0;fontSize=11;endFill=0;endArrow=block;endSize=8;" parent="WIyWlLk6GJQsqaUBKTNV-1" vertex="1">
          <mxGeometry x="430" width="100" height="40" as="geometry" />
        </mxCell>
        <mxCell id="cEXrA34bqkTo5n-bkM3A-2" style="edgeStyle=orthogonalEdgeStyle;rounded=0;orthogonalLoop=1;jettySize=auto;html=1;shadow=0;fontSize=11;strokeWidth=1;labelBackgroundColor=none;endFill=0;endArrow=block;endSize=8;" parent="WIyWlLk6GJQsqaUBKTNV-1" source="cEXrA34bqkTo5n-bkM3A-3" target="cEXrA34bqkTo5n-bkM3A-5" edge="1">
          <mxGeometry relative="1" as="geometry" />
        </mxCell>
        <mxCell id="cEXrA34bqkTo5n-bkM3A-3" value="Input username&lt;br&gt;dan password" style="shape=parallelogram;html=1;strokeWidth=1;perimeter=parallelogramPerimeter;whiteSpace=wrap;rounded=0;size=0.125;shadow=0;fontSize=11;endFill=0;endArrow=block;endSize=8;" parent="WIyWlLk6GJQsqaUBKTNV-1" vertex="1">
          <mxGeometry x="390" y="80" width="180" height="40" as="geometry" />
        </mxCell>
        <mxCell id="cEXrA34bqkTo5n-bkM3A-4" style="edgeStyle=orthogonalEdgeStyle;rounded=0;orthogonalLoop=1;jettySize=auto;html=1;entryX=0.5;entryY=0;entryDx=0;entryDy=0;entryPerimeter=0;shadow=0;fontSize=11;strokeWidth=1;labelBackgroundColor=none;endFill=0;endArrow=block;endSize=8;" parent="WIyWlLk6GJQsqaUBKTNV-1" source="cEXrA34bqkTo5n-bkM3A-5" target="cEXrA34bqkTo5n-bkM3A-8" edge="1">
          <mxGeometry relative="1" as="geometry" />
        </mxCell>
        <mxCell id="cEXrA34bqkTo5n-bkM3A-5" value="Proses login" style="rounded=0;whiteSpace=wrap;html=1;absoluteArcSize=1;strokeWidth=1;shadow=0;fontSize=11;endFill=0;endArrow=block;endSize=8;" parent="WIyWlLk6GJQsqaUBKTNV-1" vertex="1">
          <mxGeometry x="430" y="160" width="100" height="40" as="geometry" />
        </mxCell>
        <mxCell id="cEXrA34bqkTo5n-bkM3A-7" value="False" style="edgeStyle=orthogonalEdgeStyle;rounded=0;orthogonalLoop=1;jettySize=auto;html=1;entryX=0;entryY=0.5;entryDx=0;entryDy=0;shadow=0;fontSize=11;strokeWidth=1;labelBackgroundColor=#ffffff;endFill=0;endArrow=block;endSize=8;jumpStyle=none;" parent="WIyWlLk6GJQsqaUBKTNV-1" source="cEXrA34bqkTo5n-bkM3A-8" target="cEXrA34bqkTo5n-bkM3A-12" edge="1">
          <mxGeometry relative="1" as="geometry" />
        </mxCell>
        <mxCell id="cEXrA34bqkTo5n-bkM3A-20" value="Yes" style="edgeStyle=orthogonalEdgeStyle;rounded=0;orthogonalLoop=1;jettySize=auto;html=1;entryX=0.5;entryY=0;entryDx=0;entryDy=0;entryPerimeter=0;shadow=0;strokeWidth=1;labelBackgroundColor=#ffffff;endFill=0;endArrow=block;endSize=8;" parent="WIyWlLk6GJQsqaUBKTNV-1" source="cEXrA34bqkTo5n-bkM3A-8" target="cEXrA34bqkTo5n-bkM3A-15" edge="1">
          <mxGeometry relative="1" as="geometry" />
        </mxCell>
        <mxCell id="cEXrA34bqkTo5n-bkM3A-8" value="Credentials benar?" style="strokeWidth=1;html=1;shape=mxgraph.flowchart.decision;whiteSpace=wrap;rounded=0;shadow=0;fontSize=11;endFill=0;endArrow=block;endSize=8;" parent="WIyWlLk6GJQsqaUBKTNV-1" vertex="1">
          <mxGeometry x="415" y="240" width="130" height="80" as="geometry" />
        </mxCell>
        <mxCell id="cEXrA34bqkTo5n-bkM3A-14" style="edgeStyle=orthogonalEdgeStyle;rounded=0;orthogonalLoop=1;jettySize=auto;html=1;entryX=1;entryY=0.5;entryDx=0;entryDy=0;shadow=0;strokeWidth=1;labelBackgroundColor=none;endFill=0;endArrow=block;endSize=8;" parent="WIyWlLk6GJQsqaUBKTNV-1" source="cEXrA34bqkTo5n-bkM3A-12" target="cEXrA34bqkTo5n-bkM3A-3" edge="1">
          <mxGeometry relative="1" as="geometry">
            <Array as="points">
              <mxPoint x="660" y="100" />
            </Array>
          </mxGeometry>
        </mxCell>
        <mxCell id="cEXrA34bqkTo5n-bkM3A-29" style="edgeStyle=orthogonalEdgeStyle;rounded=0;orthogonalLoop=1;jettySize=auto;html=1;entryX=0.5;entryY=0;entryDx=0;entryDy=0;entryPerimeter=0;exitX=1;exitY=0.5;exitDx=0;exitDy=0;shadow=0;strokeWidth=1;labelBackgroundColor=none;endFill=0;endArrow=block;endSize=8;" parent="WIyWlLk6GJQsqaUBKTNV-1" source="cEXrA34bqkTo5n-bkM3A-19" target="cEXrA34bqkTo5n-bkM3A-28" edge="1">
          <mxGeometry relative="1" as="geometry">
            <Array as="points">
              <mxPoint x="770" y="400" />
              <mxPoint x="770" y="720" />
              <mxPoint x="480" y="720" />
            </Array>
          </mxGeometry>
        </mxCell>
        <mxCell id="cEXrA34bqkTo5n-bkM3A-12" value="Credentials&lt;br&gt;salah" style="shape=parallelogram;html=1;strokeWidth=1;perimeter=parallelogramPerimeter;whiteSpace=wrap;rounded=0;size=0.23;shadow=0;fontSize=11;endFill=0;endArrow=block;endSize=8;" parent="WIyWlLk6GJQsqaUBKTNV-1" vertex="1">
          <mxGeometry x="610" y="250" width="100" height="60" as="geometry" />
        </mxCell>
        <mxCell id="cEXrA34bqkTo5n-bkM3A-21" value="Yes" style="edgeStyle=orthogonalEdgeStyle;rounded=0;orthogonalLoop=1;jettySize=auto;html=1;entryX=0;entryY=0.5;entryDx=0;entryDy=0;shadow=0;strokeWidth=1;labelBackgroundColor=#ffffff;endFill=0;endArrow=block;endSize=8;" parent="WIyWlLk6GJQsqaUBKTNV-1" source="cEXrA34bqkTo5n-bkM3A-15" target="cEXrA34bqkTo5n-bkM3A-19" edge="1">
          <mxGeometry relative="1" as="geometry" />
        </mxCell>
        <mxCell id="cEXrA34bqkTo5n-bkM3A-22" value="No" style="edgeStyle=orthogonalEdgeStyle;rounded=0;orthogonalLoop=1;jettySize=auto;html=1;entryX=0.5;entryY=0;entryDx=0;entryDy=0;entryPerimeter=0;shadow=0;strokeWidth=1;labelBackgroundColor=#ffffff;endFill=0;endArrow=block;endSize=8;" parent="WIyWlLk6GJQsqaUBKTNV-1" source="cEXrA34bqkTo5n-bkM3A-15" target="cEXrA34bqkTo5n-bkM3A-18" edge="1">
          <mxGeometry relative="1" as="geometry" />
        </mxCell>
        <mxCell id="cEXrA34bqkTo5n-bkM3A-15" value="Role &lt;br&gt;Super Admin?" style="strokeWidth=1;html=1;shape=mxgraph.flowchart.decision;whiteSpace=wrap;rounded=0;shadow=0;fontSize=11;endFill=0;endArrow=block;endSize=8;" parent="WIyWlLk6GJQsqaUBKTNV-1" vertex="1">
          <mxGeometry x="417.5" y="360" width="125" height="80" as="geometry" />
        </mxCell>
        <mxCell id="cEXrA34bqkTo5n-bkM3A-27" value="Yes" style="edgeStyle=orthogonalEdgeStyle;rounded=0;orthogonalLoop=1;jettySize=auto;html=1;shadow=0;strokeWidth=1;labelBackgroundColor=#ffffff;endFill=0;endArrow=block;endSize=8;" parent="WIyWlLk6GJQsqaUBKTNV-1" source="cEXrA34bqkTo5n-bkM3A-17" target="cEXrA34bqkTo5n-bkM3A-25" edge="1">
          <mxGeometry relative="1" as="geometry" />
        </mxCell>
        <mxCell id="cEXrA34bqkTo5n-bkM3A-32" value="No" style="edgeStyle=orthogonalEdgeStyle;rounded=0;orthogonalLoop=1;jettySize=auto;html=1;entryX=0;entryY=0.5;entryDx=0;entryDy=0;labelBackgroundColor=#ffffff;shadow=0;strokeWidth=1;endFill=0;endArrow=block;endSize=8;" parent="WIyWlLk6GJQsqaUBKTNV-1" source="cEXrA34bqkTo5n-bkM3A-17" target="cEXrA34bqkTo5n-bkM3A-3" edge="1">
          <mxGeometry relative="1" as="geometry">
            <Array as="points">
              <mxPoint x="360" y="640" />
              <mxPoint x="360" y="100" />
            </Array>
          </mxGeometry>
        </mxCell>
        <mxCell id="cEXrA34bqkTo5n-bkM3A-17" value="Role &lt;br&gt;Voter?" style="strokeWidth=1;html=1;shape=mxgraph.flowchart.decision;whiteSpace=wrap;rounded=0;shadow=0;fontSize=11;endFill=0;endArrow=block;endSize=8;" parent="WIyWlLk6GJQsqaUBKTNV-1" vertex="1">
          <mxGeometry x="417.5" y="600" width="125" height="80" as="geometry" />
        </mxCell>
        <mxCell id="cEXrA34bqkTo5n-bkM3A-23" value="No" style="edgeStyle=orthogonalEdgeStyle;rounded=0;orthogonalLoop=1;jettySize=auto;html=1;entryX=0.5;entryY=0;entryDx=0;entryDy=0;entryPerimeter=0;shadow=0;strokeWidth=1;labelBackgroundColor=#ffffff;endFill=0;endArrow=block;endSize=8;" parent="WIyWlLk6GJQsqaUBKTNV-1" source="cEXrA34bqkTo5n-bkM3A-18" target="cEXrA34bqkTo5n-bkM3A-17" edge="1">
          <mxGeometry relative="1" as="geometry" />
        </mxCell>
        <mxCell id="cEXrA34bqkTo5n-bkM3A-26" value="Yes" style="edgeStyle=orthogonalEdgeStyle;rounded=0;orthogonalLoop=1;jettySize=auto;html=1;entryX=0;entryY=0.5;entryDx=0;entryDy=0;shadow=0;strokeWidth=1;labelBackgroundColor=#ffffff;endFill=0;endArrow=block;endSize=8;" parent="WIyWlLk6GJQsqaUBKTNV-1" source="cEXrA34bqkTo5n-bkM3A-18" target="cEXrA34bqkTo5n-bkM3A-24" edge="1">
          <mxGeometry relative="1" as="geometry" />
        </mxCell>
        <mxCell id="cEXrA34bqkTo5n-bkM3A-18" value="Role &lt;br&gt;Election Authority?" style="strokeWidth=1;html=1;shape=mxgraph.flowchart.decision;whiteSpace=wrap;rounded=0;shadow=0;fontSize=11;endFill=0;endArrow=block;endSize=8;" parent="WIyWlLk6GJQsqaUBKTNV-1" vertex="1">
          <mxGeometry x="417.5" y="480" width="125" height="80" as="geometry" />
        </mxCell>
        <mxCell id="cEXrA34bqkTo5n-bkM3A-19" value="Halaman&lt;br&gt;Super Admin" style="shape=parallelogram;html=1;strokeWidth=1;perimeter=parallelogramPerimeter;whiteSpace=wrap;rounded=0;size=0.23;shadow=0;fontSize=11;endFill=0;endArrow=block;endSize=8;" parent="WIyWlLk6GJQsqaUBKTNV-1" vertex="1">
          <mxGeometry x="610" y="370" width="110" height="60" as="geometry" />
        </mxCell>
        <mxCell id="cEXrA34bqkTo5n-bkM3A-30" style="edgeStyle=orthogonalEdgeStyle;rounded=0;orthogonalLoop=1;jettySize=auto;html=1;entryX=0.5;entryY=0;entryDx=0;entryDy=0;entryPerimeter=0;shadow=0;strokeWidth=1;labelBackgroundColor=none;endFill=0;endArrow=block;endSize=8;" parent="WIyWlLk6GJQsqaUBKTNV-1" source="cEXrA34bqkTo5n-bkM3A-24" target="cEXrA34bqkTo5n-bkM3A-28" edge="1">
          <mxGeometry relative="1" as="geometry">
            <Array as="points">
              <mxPoint x="770" y="520" />
              <mxPoint x="770" y="720" />
              <mxPoint x="480" y="720" />
            </Array>
          </mxGeometry>
        </mxCell>
        <mxCell id="cEXrA34bqkTo5n-bkM3A-24" value="Halaman&lt;br&gt;Election Authority" style="shape=parallelogram;html=1;strokeWidth=1;perimeter=parallelogramPerimeter;whiteSpace=wrap;rounded=0;size=0.17307692307692307;shadow=0;fontSize=11;endFill=0;endArrow=block;endSize=8;" parent="WIyWlLk6GJQsqaUBKTNV-1" vertex="1">
          <mxGeometry x="610" y="490" width="130" height="60" as="geometry" />
        </mxCell>
        <mxCell id="cEXrA34bqkTo5n-bkM3A-31" style="edgeStyle=orthogonalEdgeStyle;rounded=0;orthogonalLoop=1;jettySize=auto;html=1;entryX=0.5;entryY=0;entryDx=0;entryDy=0;entryPerimeter=0;shadow=0;strokeWidth=1;labelBackgroundColor=none;endFill=0;endArrow=block;endSize=8;" parent="WIyWlLk6GJQsqaUBKTNV-1" source="cEXrA34bqkTo5n-bkM3A-25" target="cEXrA34bqkTo5n-bkM3A-28" edge="1">
          <mxGeometry relative="1" as="geometry">
            <Array as="points">
              <mxPoint x="770" y="640" />
              <mxPoint x="770" y="720" />
              <mxPoint x="480" y="720" />
            </Array>
          </mxGeometry>
        </mxCell>
        <mxCell id="cEXrA34bqkTo5n-bkM3A-25" value="Halaman&lt;br&gt;Voter" style="shape=parallelogram;html=1;strokeWidth=1;perimeter=parallelogramPerimeter;whiteSpace=wrap;rounded=0;size=0.23;shadow=0;fontSize=11;endFill=0;endArrow=block;endSize=8;" parent="WIyWlLk6GJQsqaUBKTNV-1" vertex="1">
          <mxGeometry x="610" y="610" width="100" height="60" as="geometry" />
        </mxCell>
        <mxCell id="cEXrA34bqkTo5n-bkM3A-28" value="End" style="strokeWidth=1;html=1;shape=mxgraph.flowchart.terminator;whiteSpace=wrap;rounded=0;shadow=0;fontSize=11;endFill=0;endArrow=block;endSize=8;" parent="WIyWlLk6GJQsqaUBKTNV-1" vertex="1">
          <mxGeometry x="430" y="760" width="100" height="40" as="geometry" />
        </mxCell>
      </root>
    </mxGraphModel>
  </diagram>
  <diagram id="LXsX329N4g-DjXMw4RKQ" name="create-ea">
    <mxGraphModel dx="1054" dy="605" grid="1" gridSize="10" guides="1" tooltips="1" connect="1" arrows="1" fold="1" page="1" pageScale="1" pageWidth="827" pageHeight="1169" math="0" shadow="0">
      <root>
        <mxCell id="6KQWg3v5wUVo-hego7Wu-0" />
        <mxCell id="6KQWg3v5wUVo-hego7Wu-1" parent="6KQWg3v5wUVo-hego7Wu-0" />
        <mxCell id="U8l3LxekH08N-TCR7E8b-5" style="edgeStyle=orthogonalEdgeStyle;rounded=0;orthogonalLoop=1;jettySize=auto;html=1;entryX=0.5;entryY=0;entryDx=0;entryDy=0;shadow=0;labelBackgroundColor=none;endArrow=block;endFill=0;endSize=8;strokeWidth=1;" parent="6KQWg3v5wUVo-hego7Wu-1" source="U8l3LxekH08N-TCR7E8b-3" target="U8l3LxekH08N-TCR7E8b-4" edge="1">
          <mxGeometry relative="1" as="geometry" />
        </mxCell>
        <mxCell id="U8l3LxekH08N-TCR7E8b-3" value="Start" style="strokeWidth=1;html=1;shape=mxgraph.flowchart.terminator;whiteSpace=wrap;rounded=0;shadow=0;endArrow=block;endFill=0;endSize=8;fontSize=11;" parent="6KQWg3v5wUVo-hego7Wu-1" vertex="1">
          <mxGeometry x="350" width="100" height="40" as="geometry" />
        </mxCell>
        <mxCell id="U8l3LxekH08N-TCR7E8b-9" style="edgeStyle=orthogonalEdgeStyle;rounded=0;orthogonalLoop=1;jettySize=auto;html=1;exitX=0.5;exitY=1;exitDx=0;exitDy=0;entryX=0.5;entryY=0;entryDx=0;entryDy=0;entryPerimeter=0;shadow=0;labelBackgroundColor=none;endArrow=block;endFill=0;endSize=8;strokeWidth=1;" parent="6KQWg3v5wUVo-hego7Wu-1" source="U8l3LxekH08N-TCR7E8b-4" target="U8l3LxekH08N-TCR7E8b-8" edge="1">
          <mxGeometry relative="1" as="geometry" />
        </mxCell>
        <mxCell id="U8l3LxekH08N-TCR7E8b-4" value="Input username, &lt;br&gt;password dan &lt;br&gt;nama election authority" style="shape=parallelogram;html=1;strokeWidth=1;perimeter=parallelogramPerimeter;whiteSpace=wrap;rounded=0;size=0.140625;shadow=0;endArrow=block;endFill=0;endSize=8;fontSize=11;" parent="6KQWg3v5wUVo-hego7Wu-1" vertex="1">
          <mxGeometry x="320" y="80" width="160" height="60" as="geometry" />
        </mxCell>
        <mxCell id="U8l3LxekH08N-TCR7E8b-15" style="edgeStyle=orthogonalEdgeStyle;rounded=0;orthogonalLoop=1;jettySize=auto;html=1;entryX=0.5;entryY=0;entryDx=0;entryDy=0;entryPerimeter=0;shadow=0;labelBackgroundColor=none;endArrow=block;endFill=0;endSize=8;strokeWidth=1;" parent="6KQWg3v5wUVo-hego7Wu-1" source="U8l3LxekH08N-TCR7E8b-6" target="U8l3LxekH08N-TCR7E8b-14" edge="1">
          <mxGeometry relative="1" as="geometry" />
        </mxCell>
        <mxCell id="U8l3LxekH08N-TCR7E8b-6" value="Proses pembuatan akun election authority" style="rounded=0;whiteSpace=wrap;html=1;absoluteArcSize=1;strokeWidth=1;shadow=0;endArrow=block;endFill=0;endSize=8;fontSize=11;" parent="6KQWg3v5wUVo-hego7Wu-1" vertex="1">
          <mxGeometry x="335" y="320" width="130" height="70" as="geometry" />
        </mxCell>
        <mxCell id="U8l3LxekH08N-TCR7E8b-10" value="True" style="edgeStyle=orthogonalEdgeStyle;rounded=0;orthogonalLoop=1;jettySize=auto;html=1;entryX=0.5;entryY=0;entryDx=0;entryDy=0;shadow=0;labelBackgroundColor=#ffffff;endArrow=block;endFill=0;endSize=8;strokeWidth=1;" parent="6KQWg3v5wUVo-hego7Wu-1" source="U8l3LxekH08N-TCR7E8b-8" target="U8l3LxekH08N-TCR7E8b-6" edge="1">
          <mxGeometry relative="1" as="geometry" />
        </mxCell>
        <mxCell id="U8l3LxekH08N-TCR7E8b-12" value="False" style="edgeStyle=orthogonalEdgeStyle;rounded=0;orthogonalLoop=1;jettySize=auto;html=1;shadow=0;labelBackgroundColor=#ffffff;endArrow=block;endFill=0;endSize=8;strokeWidth=1;" parent="6KQWg3v5wUVo-hego7Wu-1" source="U8l3LxekH08N-TCR7E8b-8" target="U8l3LxekH08N-TCR7E8b-11" edge="1">
          <mxGeometry relative="1" as="geometry" />
        </mxCell>
        <mxCell id="U8l3LxekH08N-TCR7E8b-8" value="unique&lt;br&gt;username?" style="strokeWidth=1;html=1;shape=mxgraph.flowchart.decision;whiteSpace=wrap;rounded=0;shadow=0;endArrow=block;endFill=0;endSize=8;fontSize=11;" parent="6KQWg3v5wUVo-hego7Wu-1" vertex="1">
          <mxGeometry x="340" y="180" width="120" height="100" as="geometry" />
        </mxCell>
        <mxCell id="U8l3LxekH08N-TCR7E8b-13" style="edgeStyle=orthogonalEdgeStyle;rounded=0;orthogonalLoop=1;jettySize=auto;html=1;entryX=1;entryY=0.5;entryDx=0;entryDy=0;shadow=0;labelBackgroundColor=none;endArrow=block;endFill=0;endSize=8;strokeWidth=1;" parent="6KQWg3v5wUVo-hego7Wu-1" source="U8l3LxekH08N-TCR7E8b-11" target="U8l3LxekH08N-TCR7E8b-4" edge="1">
          <mxGeometry relative="1" as="geometry">
            <Array as="points">
              <mxPoint x="575" y="110" />
            </Array>
          </mxGeometry>
        </mxCell>
        <mxCell id="U8l3LxekH08N-TCR7E8b-11" value="Username sudah digunakan" style="shape=parallelogram;html=1;strokeWidth=1;perimeter=parallelogramPerimeter;whiteSpace=wrap;rounded=0;size=0.17307692307692307;shadow=0;endArrow=block;endFill=0;endSize=8;fontSize=11;" parent="6KQWg3v5wUVo-hego7Wu-1" vertex="1">
          <mxGeometry x="510" y="200" width="130" height="60" as="geometry" />
        </mxCell>
        <mxCell id="U8l3LxekH08N-TCR7E8b-14" value="End" style="strokeWidth=1;html=1;shape=mxgraph.flowchart.terminator;whiteSpace=wrap;rounded=0;shadow=0;endArrow=block;endFill=0;endSize=8;fontSize=11;" parent="6KQWg3v5wUVo-hego7Wu-1" vertex="1">
          <mxGeometry x="350" y="440" width="100" height="40" as="geometry" />
        </mxCell>
      </root>
    </mxGraphModel>
  </diagram>
  <diagram id="xBZYPQlDqlaTNY8MY0ZJ" name="create-election">
    <mxGraphModel dx="1054" dy="605" grid="1" gridSize="10" guides="1" tooltips="1" connect="1" arrows="1" fold="1" page="1" pageScale="1" pageWidth="827" pageHeight="1169" math="0" shadow="0">
      <root>
        <mxCell id="L_kDG-t8zdZ7WhSsaVpq-0" />
        <mxCell id="L_kDG-t8zdZ7WhSsaVpq-1" parent="L_kDG-t8zdZ7WhSsaVpq-0" />
        <mxCell id="wRAH97HWcBKKK4Xmf5Ck-0" style="edgeStyle=orthogonalEdgeStyle;rounded=0;orthogonalLoop=1;jettySize=auto;html=1;entryX=0.5;entryY=0;entryDx=0;entryDy=0;shadow=0;labelBackgroundColor=none;endArrow=block;endFill=0;endSize=8;strokeWidth=1;" parent="L_kDG-t8zdZ7WhSsaVpq-1" source="lsVILo5q8_tEaw1KiQmF-2" target="lsVILo5q8_tEaw1KiQmF-3" edge="1">
          <mxGeometry relative="1" as="geometry" />
        </mxCell>
        <mxCell id="lsVILo5q8_tEaw1KiQmF-2" value="Start" style="strokeWidth=1;html=1;shape=mxgraph.flowchart.terminator;whiteSpace=wrap;rounded=0;shadow=0;endArrow=block;endFill=0;endSize=8;fontSize=11;" parent="L_kDG-t8zdZ7WhSsaVpq-1" vertex="1">
          <mxGeometry x="350" width="100" height="40" as="geometry" />
        </mxCell>
        <mxCell id="wRAH97HWcBKKK4Xmf5Ck-1" style="edgeStyle=orthogonalEdgeStyle;rounded=0;orthogonalLoop=1;jettySize=auto;html=1;entryX=0.5;entryY=0;entryDx=0;entryDy=0;shadow=0;labelBackgroundColor=none;endArrow=block;endFill=0;endSize=8;strokeWidth=1;" parent="L_kDG-t8zdZ7WhSsaVpq-1" source="lsVILo5q8_tEaw1KiQmF-3" target="lsVILo5q8_tEaw1KiQmF-4" edge="1">
          <mxGeometry relative="1" as="geometry" />
        </mxCell>
        <mxCell id="lsVILo5q8_tEaw1KiQmF-3" value="Input nama, deskripsi,&lt;br&gt;tanggal mulai dan&lt;br&gt;tanggal selesai" style="shape=parallelogram;html=1;strokeWidth=1;perimeter=parallelogramPerimeter;whiteSpace=wrap;rounded=0;size=0.140625;shadow=0;endArrow=block;endFill=0;endSize=8;fontSize=11;" parent="L_kDG-t8zdZ7WhSsaVpq-1" vertex="1">
          <mxGeometry x="320" y="80" width="160" height="60" as="geometry" />
        </mxCell>
        <mxCell id="wRAH97HWcBKKK4Xmf5Ck-3" style="edgeStyle=orthogonalEdgeStyle;rounded=0;orthogonalLoop=1;jettySize=auto;html=1;entryX=0.5;entryY=0;entryDx=0;entryDy=0;shadow=0;labelBackgroundColor=none;endArrow=block;endFill=0;endSize=8;strokeWidth=1;" parent="L_kDG-t8zdZ7WhSsaVpq-1" source="lsVILo5q8_tEaw1KiQmF-4" target="wRAH97HWcBKKK4Xmf5Ck-2" edge="1">
          <mxGeometry relative="1" as="geometry" />
        </mxCell>
        <mxCell id="lsVILo5q8_tEaw1KiQmF-4" value="Pembuatan election" style="rounded=0;whiteSpace=wrap;html=1;absoluteArcSize=1;strokeWidth=1;shadow=0;endArrow=block;endFill=0;endSize=8;fontSize=11;" parent="L_kDG-t8zdZ7WhSsaVpq-1" vertex="1">
          <mxGeometry x="355" y="200" width="90" height="80" as="geometry" />
        </mxCell>
        <mxCell id="wRAH97HWcBKKK4Xmf5Ck-5" style="edgeStyle=orthogonalEdgeStyle;rounded=0;orthogonalLoop=1;jettySize=auto;html=1;shadow=0;labelBackgroundColor=none;endArrow=block;endFill=0;endSize=8;strokeWidth=1;" parent="L_kDG-t8zdZ7WhSsaVpq-1" source="wRAH97HWcBKKK4Xmf5Ck-2" target="wRAH97HWcBKKK4Xmf5Ck-4" edge="1">
          <mxGeometry relative="1" as="geometry" />
        </mxCell>
        <mxCell id="wRAH97HWcBKKK4Xmf5Ck-2" value="Election berhasil&lt;br&gt;dibuat" style="shape=parallelogram;html=1;strokeWidth=1;perimeter=parallelogramPerimeter;whiteSpace=wrap;rounded=0;size=0.1607142857142857;shadow=0;endArrow=block;endFill=0;endSize=8;fontSize=11;" parent="L_kDG-t8zdZ7WhSsaVpq-1" vertex="1">
          <mxGeometry x="330" y="320" width="140" height="60" as="geometry" />
        </mxCell>
        <mxCell id="wRAH97HWcBKKK4Xmf5Ck-4" value="End" style="strokeWidth=1;html=1;shape=mxgraph.flowchart.terminator;whiteSpace=wrap;rounded=0;shadow=0;endArrow=block;endFill=0;endSize=8;fontSize=11;" parent="L_kDG-t8zdZ7WhSsaVpq-1" vertex="1">
          <mxGeometry x="350" y="440" width="100" height="40" as="geometry" />
        </mxCell>
      </root>
    </mxGraphModel>
  </diagram>
  <diagram id="TH83_Q8cF1tH8GIB_s2U" name="add-candidate">
    <mxGraphModel dx="1054" dy="605" grid="1" gridSize="10" guides="1" tooltips="1" connect="1" arrows="1" fold="1" page="1" pageScale="1" pageWidth="827" pageHeight="1169" math="0" shadow="0">
      <root>
        <mxCell id="PXLnuG3mkBYyr4n6KwBB-0" />
        <mxCell id="PXLnuG3mkBYyr4n6KwBB-1" parent="PXLnuG3mkBYyr4n6KwBB-0" />
        <mxCell id="Y5bfeVh9V_7leBVaCGXS-4" style="edgeStyle=orthogonalEdgeStyle;rounded=0;orthogonalLoop=1;jettySize=auto;html=1;entryX=0.5;entryY=0;entryDx=0;entryDy=0;shadow=0;labelBackgroundColor=none;endArrow=block;endFill=0;endSize=8;strokeWidth=1;" edge="1" parent="PXLnuG3mkBYyr4n6KwBB-1" source="Y5bfeVh9V_7leBVaCGXS-2" target="Y5bfeVh9V_7leBVaCGXS-3">
          <mxGeometry relative="1" as="geometry" />
        </mxCell>
        <mxCell id="Y5bfeVh9V_7leBVaCGXS-2" value="Start" style="strokeWidth=1;html=1;shape=mxgraph.flowchart.terminator;whiteSpace=wrap;rounded=0;shadow=0;endArrow=block;endFill=0;endSize=8;fontSize=11;" vertex="1" parent="PXLnuG3mkBYyr4n6KwBB-1">
          <mxGeometry x="350" width="100" height="40" as="geometry" />
        </mxCell>
        <mxCell id="Y5bfeVh9V_7leBVaCGXS-6" style="edgeStyle=orthogonalEdgeStyle;rounded=0;orthogonalLoop=1;jettySize=auto;html=1;entryX=0.5;entryY=0;entryDx=0;entryDy=0;shadow=0;labelBackgroundColor=none;endArrow=block;endFill=0;endSize=8;strokeWidth=1;" edge="1" parent="PXLnuG3mkBYyr4n6KwBB-1" source="Y5bfeVh9V_7leBVaCGXS-3" target="Y5bfeVh9V_7leBVaCGXS-5">
          <mxGeometry relative="1" as="geometry" />
        </mxCell>
        <mxCell id="Y5bfeVh9V_7leBVaCGXS-3" value="Pilih election" style="shape=parallelogram;html=1;strokeWidth=1;perimeter=parallelogramPerimeter;whiteSpace=wrap;rounded=0;size=0.15000000000000002;shadow=0;endArrow=block;endFill=0;endSize=8;fontSize=11;" vertex="1" parent="PXLnuG3mkBYyr4n6KwBB-1">
          <mxGeometry x="350" y="80" width="100" height="40" as="geometry" />
        </mxCell>
        <mxCell id="Y5bfeVh9V_7leBVaCGXS-8" style="edgeStyle=orthogonalEdgeStyle;rounded=0;orthogonalLoop=1;jettySize=auto;html=1;entryX=0.5;entryY=0;entryDx=0;entryDy=0;entryPerimeter=0;shadow=0;labelBackgroundColor=none;endArrow=block;endFill=0;endSize=8;strokeWidth=1;" edge="1" parent="PXLnuG3mkBYyr4n6KwBB-1" source="Y5bfeVh9V_7leBVaCGXS-5" target="Y5bfeVh9V_7leBVaCGXS-7">
          <mxGeometry relative="1" as="geometry" />
        </mxCell>
        <mxCell id="Y5bfeVh9V_7leBVaCGXS-5" value="Input nama, visi,&lt;br&gt;misi dan&lt;br&gt;pengalaman" style="shape=parallelogram;html=1;strokeWidth=1;perimeter=parallelogramPerimeter;whiteSpace=wrap;rounded=0;size=0.10714285714285714;shadow=0;endArrow=block;endFill=0;endSize=8;fontSize=11;" vertex="1" parent="PXLnuG3mkBYyr4n6KwBB-1">
          <mxGeometry x="330" y="160" width="140" height="60" as="geometry" />
        </mxCell>
        <mxCell id="Y5bfeVh9V_7leBVaCGXS-9" value="Yes" style="edgeStyle=orthogonalEdgeStyle;rounded=0;orthogonalLoop=1;jettySize=auto;html=1;exitX=0;exitY=0.5;exitDx=0;exitDy=0;exitPerimeter=0;entryX=0;entryY=0.5;entryDx=0;entryDy=0;shadow=0;labelBackgroundColor=#ffffff;endArrow=block;endFill=0;endSize=8;strokeWidth=1;" edge="1" parent="PXLnuG3mkBYyr4n6KwBB-1" source="Y5bfeVh9V_7leBVaCGXS-7" target="Y5bfeVh9V_7leBVaCGXS-5">
          <mxGeometry relative="1" as="geometry">
            <Array as="points">
              <mxPoint x="270" y="320" />
              <mxPoint x="270" y="190" />
            </Array>
          </mxGeometry>
        </mxCell>
        <mxCell id="Y5bfeVh9V_7leBVaCGXS-11" value="No" style="edgeStyle=orthogonalEdgeStyle;rounded=0;orthogonalLoop=1;jettySize=auto;html=1;entryX=0.5;entryY=0;entryDx=0;entryDy=0;entryPerimeter=0;shadow=0;labelBackgroundColor=#ffffff;endArrow=block;endFill=0;endSize=8;strokeWidth=1;" edge="1" parent="PXLnuG3mkBYyr4n6KwBB-1" source="Y5bfeVh9V_7leBVaCGXS-7" target="Y5bfeVh9V_7leBVaCGXS-10">
          <mxGeometry relative="1" as="geometry" />
        </mxCell>
        <mxCell id="Y5bfeVh9V_7leBVaCGXS-7" value="Input lagi?" style="strokeWidth=1;html=1;shape=mxgraph.flowchart.decision;whiteSpace=wrap;rounded=0;shadow=0;endArrow=block;endFill=0;endSize=8;fontSize=11;" vertex="1" parent="PXLnuG3mkBYyr4n6KwBB-1">
          <mxGeometry x="350" y="280" width="100" height="80" as="geometry" />
        </mxCell>
        <mxCell id="Y5bfeVh9V_7leBVaCGXS-10" value="End" style="strokeWidth=1;html=1;shape=mxgraph.flowchart.terminator;whiteSpace=wrap;rounded=0;shadow=0;endArrow=block;endFill=0;endSize=8;fontSize=11;" vertex="1" parent="PXLnuG3mkBYyr4n6KwBB-1">
          <mxGeometry x="350" y="400" width="100" height="40" as="geometry" />
        </mxCell>
      </root>
    </mxGraphModel>
  </diagram>
  <diagram id="e_aMwRezPqAjv52DzeSO" name="deploy-election">
    <mxGraphModel dx="1240" dy="712" grid="1" gridSize="10" guides="1" tooltips="1" connect="1" arrows="1" fold="1" page="1" pageScale="1" pageWidth="827" pageHeight="1169" math="0" shadow="0">
      <root>
        <mxCell id="W2N9CFXfJV5B5DyjQFZy-0" />
        <mxCell id="W2N9CFXfJV5B5DyjQFZy-1" parent="W2N9CFXfJV5B5DyjQFZy-0" />
        <mxCell id="jbz9i9LAp1VtBIHSlZoB-5" style="edgeStyle=orthogonalEdgeStyle;rounded=0;orthogonalLoop=1;jettySize=auto;html=1;entryX=0.5;entryY=0;entryDx=0;entryDy=0;shadow=0;labelBackgroundColor=none;endArrow=block;endFill=0;endSize=8;strokeWidth=1;" edge="1" parent="W2N9CFXfJV5B5DyjQFZy-1" source="jbz9i9LAp1VtBIHSlZoB-2" target="jbz9i9LAp1VtBIHSlZoB-3">
          <mxGeometry relative="1" as="geometry" />
        </mxCell>
        <mxCell id="jbz9i9LAp1VtBIHSlZoB-2" value="Start" style="strokeWidth=1;html=1;shape=mxgraph.flowchart.terminator;whiteSpace=wrap;rounded=0;shadow=0;endArrow=block;endFill=0;endSize=8;fontSize=11;" vertex="1" parent="W2N9CFXfJV5B5DyjQFZy-1">
          <mxGeometry x="350" width="100" height="40" as="geometry" />
        </mxCell>
        <mxCell id="jbz9i9LAp1VtBIHSlZoB-7" style="edgeStyle=orthogonalEdgeStyle;rounded=0;orthogonalLoop=1;jettySize=auto;html=1;entryX=0.5;entryY=0;entryDx=0;entryDy=0;shadow=0;labelBackgroundColor=none;endArrow=block;endFill=0;endSize=8;strokeWidth=1;" edge="1" parent="W2N9CFXfJV5B5DyjQFZy-1" source="jbz9i9LAp1VtBIHSlZoB-3" target="jbz9i9LAp1VtBIHSlZoB-4">
          <mxGeometry relative="1" as="geometry" />
        </mxCell>
        <mxCell id="jbz9i9LAp1VtBIHSlZoB-3" value="Pilih election" style="shape=parallelogram;html=1;strokeWidth=1;perimeter=parallelogramPerimeter;whiteSpace=wrap;rounded=0;size=0.15000000000000002;shadow=0;endArrow=block;endFill=0;endSize=8;fontSize=11;" vertex="1" parent="W2N9CFXfJV5B5DyjQFZy-1">
          <mxGeometry x="350" y="80" width="100" height="40" as="geometry" />
        </mxCell>
        <mxCell id="jbz9i9LAp1VtBIHSlZoB-8" style="edgeStyle=orthogonalEdgeStyle;rounded=0;orthogonalLoop=1;jettySize=auto;html=1;entryX=0.5;entryY=0;entryDx=0;entryDy=0;shadow=0;labelBackgroundColor=none;endArrow=block;endFill=0;endSize=8;strokeWidth=1;" edge="1" parent="W2N9CFXfJV5B5DyjQFZy-1" source="jbz9i9LAp1VtBIHSlZoB-4" target="jbz9i9LAp1VtBIHSlZoB-6">
          <mxGeometry relative="1" as="geometry" />
        </mxCell>
        <mxCell id="jbz9i9LAp1VtBIHSlZoB-4" value="Mengirim ether dari super admin ke wallet address election authority" style="rounded=0;whiteSpace=wrap;html=1;absoluteArcSize=1;strokeWidth=1;shadow=0;endArrow=block;endFill=0;endSize=8;fontSize=11;" vertex="1" parent="W2N9CFXfJV5B5DyjQFZy-1">
          <mxGeometry x="320" y="160" width="160" height="80" as="geometry" />
        </mxCell>
        <mxCell id="jbz9i9LAp1VtBIHSlZoB-11" style="edgeStyle=orthogonalEdgeStyle;rounded=0;orthogonalLoop=1;jettySize=auto;html=1;entryX=0.5;entryY=0;entryDx=0;entryDy=0;shadow=0;labelBackgroundColor=none;endArrow=block;endFill=0;endSize=8;strokeWidth=1;" edge="1" parent="W2N9CFXfJV5B5DyjQFZy-1" source="jbz9i9LAp1VtBIHSlZoB-6" target="jbz9i9LAp1VtBIHSlZoB-9">
          <mxGeometry relative="1" as="geometry" />
        </mxCell>
        <mxCell id="jbz9i9LAp1VtBIHSlZoB-6" value="Deploy smart contract ke private blockchain oleh election authority" style="rounded=0;whiteSpace=wrap;html=1;absoluteArcSize=1;strokeWidth=1;shadow=0;endArrow=block;endFill=0;endSize=8;fontSize=11;spacing=7;" vertex="1" parent="W2N9CFXfJV5B5DyjQFZy-1">
          <mxGeometry x="320" y="280" width="160" height="80" as="geometry" />
        </mxCell>
        <mxCell id="jbz9i9LAp1VtBIHSlZoB-13" style="edgeStyle=orthogonalEdgeStyle;rounded=0;orthogonalLoop=1;jettySize=auto;html=1;shadow=0;labelBackgroundColor=none;endArrow=block;endFill=0;endSize=8;strokeWidth=1;" edge="1" parent="W2N9CFXfJV5B5DyjQFZy-1" source="jbz9i9LAp1VtBIHSlZoB-9" target="jbz9i9LAp1VtBIHSlZoB-12">
          <mxGeometry relative="1" as="geometry" />
        </mxCell>
        <mxCell id="jbz9i9LAp1VtBIHSlZoB-9" value="Set candidate di smart contract berdasarkan data di database" style="rounded=0;whiteSpace=wrap;html=1;absoluteArcSize=1;strokeWidth=1;shadow=0;endArrow=block;endFill=0;endSize=8;fontSize=11;spacing=6;" vertex="1" parent="W2N9CFXfJV5B5DyjQFZy-1">
          <mxGeometry x="320" y="400" width="160" height="80" as="geometry" />
        </mxCell>
        <mxCell id="jbz9i9LAp1VtBIHSlZoB-15" style="edgeStyle=orthogonalEdgeStyle;rounded=0;orthogonalLoop=1;jettySize=auto;html=1;entryX=0.5;entryY=0;entryDx=0;entryDy=0;entryPerimeter=0;shadow=0;labelBackgroundColor=none;endArrow=block;endFill=0;endSize=8;strokeWidth=1;" edge="1" parent="W2N9CFXfJV5B5DyjQFZy-1" source="jbz9i9LAp1VtBIHSlZoB-12" target="jbz9i9LAp1VtBIHSlZoB-14">
          <mxGeometry relative="1" as="geometry" />
        </mxCell>
        <mxCell id="jbz9i9LAp1VtBIHSlZoB-12" value="Smart contract berhasil di deploy" style="shape=parallelogram;html=1;strokeWidth=1;perimeter=parallelogramPerimeter;whiteSpace=wrap;rounded=0;size=0.10714285714285714;shadow=0;endArrow=block;endFill=0;endSize=8;fontSize=11;spacing=9;" vertex="1" parent="W2N9CFXfJV5B5DyjQFZy-1">
          <mxGeometry x="330" y="520" width="140" height="40" as="geometry" />
        </mxCell>
        <mxCell id="jbz9i9LAp1VtBIHSlZoB-14" value="End" style="strokeWidth=1;html=1;shape=mxgraph.flowchart.terminator;whiteSpace=wrap;rounded=0;shadow=0;endArrow=block;endFill=0;endSize=8;fontSize=11;" vertex="1" parent="W2N9CFXfJV5B5DyjQFZy-1">
          <mxGeometry x="350" y="600" width="100" height="40" as="geometry" />
        </mxCell>
      </root>
    </mxGraphModel>
  </diagram>
  <diagram id="-YGDMJMfJ2T2aebIFKW_" name="voter-register-to-election">
    <mxGraphModel dx="1054" dy="605" grid="1" gridSize="10" guides="1" tooltips="1" connect="1" arrows="1" fold="1" page="1" pageScale="1" pageWidth="827" pageHeight="1169" math="0" shadow="0">
      <root>
        <mxCell id="Mwt5COxjQra6mZKLzjHA-0" />
        <mxCell id="Mwt5COxjQra6mZKLzjHA-1" parent="Mwt5COxjQra6mZKLzjHA-0" />
        <mxCell id="WRLbt8DxfiSPxLus6zmw-0" style="edgeStyle=orthogonalEdgeStyle;rounded=0;orthogonalLoop=1;jettySize=auto;html=1;entryX=0.5;entryY=0;entryDx=0;entryDy=0;shadow=0;labelBackgroundColor=none;endArrow=block;endFill=0;endSize=8;strokeWidth=1;" parent="Mwt5COxjQra6mZKLzjHA-1" source="pE9dSFfgIOo7q_d1g_-d-2" target="k8p7S7nv3FZ6Ar4X1KjU-0" edge="1">
          <mxGeometry relative="1" as="geometry" />
        </mxCell>
        <mxCell id="pE9dSFfgIOo7q_d1g_-d-2" value="Start" style="strokeWidth=1;html=1;shape=mxgraph.flowchart.terminator;whiteSpace=wrap;rounded=0;shadow=0;endArrow=block;endFill=0;endSize=8;fontSize=11;" parent="Mwt5COxjQra6mZKLzjHA-1" vertex="1">
          <mxGeometry x="350" width="100" height="40" as="geometry" />
        </mxCell>
        <mxCell id="WRLbt8DxfiSPxLus6zmw-2" style="edgeStyle=orthogonalEdgeStyle;rounded=0;orthogonalLoop=1;jettySize=auto;html=1;entryX=0.5;entryY=0;entryDx=0;entryDy=0;entryPerimeter=0;shadow=0;labelBackgroundColor=none;endArrow=block;endFill=0;endSize=8;strokeWidth=1;" parent="Mwt5COxjQra6mZKLzjHA-1" source="k8p7S7nv3FZ6Ar4X1KjU-0" target="WRLbt8DxfiSPxLus6zmw-1" edge="1">
          <mxGeometry relative="1" as="geometry" />
        </mxCell>
        <mxCell id="k8p7S7nv3FZ6Ar4X1KjU-0" value="Pilih election" style="shape=parallelogram;html=1;strokeWidth=1;perimeter=parallelogramPerimeter;whiteSpace=wrap;rounded=0;size=0.125;shadow=0;endArrow=block;endFill=0;endSize=8;fontSize=11;" parent="Mwt5COxjQra6mZKLzjHA-1" vertex="1">
          <mxGeometry x="340" y="80" width="120" height="40" as="geometry" />
        </mxCell>
        <mxCell id="WRLbt8DxfiSPxLus6zmw-4" value="True" style="edgeStyle=orthogonalEdgeStyle;rounded=0;orthogonalLoop=1;jettySize=auto;html=1;entryX=0.5;entryY=0;entryDx=0;entryDy=0;shadow=0;labelBackgroundColor=#ffffff;endArrow=block;endFill=0;endSize=8;strokeWidth=1;" parent="Mwt5COxjQra6mZKLzjHA-1" source="WRLbt8DxfiSPxLus6zmw-1" target="WRLbt8DxfiSPxLus6zmw-3" edge="1">
          <mxGeometry relative="1" as="geometry" />
        </mxCell>
        <mxCell id="WRLbt8DxfiSPxLus6zmw-8" value="False" style="edgeStyle=orthogonalEdgeStyle;rounded=0;orthogonalLoop=1;jettySize=auto;html=1;entryX=0;entryY=0.5;entryDx=0;entryDy=0;shadow=0;labelBackgroundColor=#ffffff;endArrow=block;endFill=0;endSize=8;strokeWidth=1;" parent="Mwt5COxjQra6mZKLzjHA-1" source="WRLbt8DxfiSPxLus6zmw-1" target="WRLbt8DxfiSPxLus6zmw-7" edge="1">
          <mxGeometry relative="1" as="geometry" />
        </mxCell>
        <mxCell id="WRLbt8DxfiSPxLus6zmw-1" value="Terverifikasi oleh&lt;br&gt;election authority?" style="strokeWidth=1;html=1;shape=mxgraph.flowchart.decision;whiteSpace=wrap;rounded=0;shadow=0;endArrow=block;endFill=0;endSize=8;fontSize=11;" parent="Mwt5COxjQra6mZKLzjHA-1" vertex="1">
          <mxGeometry x="330" y="160" width="140" height="80" as="geometry" />
        </mxCell>
        <mxCell id="WRLbt8DxfiSPxLus6zmw-6" style="edgeStyle=orthogonalEdgeStyle;rounded=0;orthogonalLoop=1;jettySize=auto;html=1;entryX=0.5;entryY=0;entryDx=0;entryDy=0;shadow=0;labelBackgroundColor=none;endArrow=block;endFill=0;endSize=8;strokeWidth=1;" parent="Mwt5COxjQra6mZKLzjHA-1" source="WRLbt8DxfiSPxLus6zmw-3" target="WRLbt8DxfiSPxLus6zmw-5" edge="1">
          <mxGeometry relative="1" as="geometry" />
        </mxCell>
        <mxCell id="WRLbt8DxfiSPxLus6zmw-3" value="Verifikasi voter" style="rounded=0;whiteSpace=wrap;html=1;absoluteArcSize=1;strokeWidth=1;shadow=0;endArrow=block;endFill=0;endSize=8;fontSize=11;" parent="Mwt5COxjQra6mZKLzjHA-1" vertex="1">
          <mxGeometry x="350" y="280" width="100" height="80" as="geometry" />
        </mxCell>
        <mxCell id="WRLbt8DxfiSPxLus6zmw-10" style="edgeStyle=orthogonalEdgeStyle;rounded=0;orthogonalLoop=1;jettySize=auto;html=1;entryX=0.5;entryY=0;entryDx=0;entryDy=0;entryPerimeter=0;shadow=0;labelBackgroundColor=none;endArrow=block;endFill=0;endSize=8;strokeWidth=1;" parent="Mwt5COxjQra6mZKLzjHA-1" source="WRLbt8DxfiSPxLus6zmw-5" target="WRLbt8DxfiSPxLus6zmw-9" edge="1">
          <mxGeometry relative="1" as="geometry" />
        </mxCell>
        <mxCell id="WRLbt8DxfiSPxLus6zmw-5" value="Voter memiliki hak&lt;br&gt;suara di election" style="shape=parallelogram;html=1;strokeWidth=1;perimeter=parallelogramPerimeter;whiteSpace=wrap;rounded=0;size=0.1607142857142857;shadow=0;endArrow=block;endFill=0;endSize=8;fontSize=11;" parent="Mwt5COxjQra6mZKLzjHA-1" vertex="1">
          <mxGeometry x="330" y="400" width="140" height="60" as="geometry" />
        </mxCell>
        <mxCell id="WRLbt8DxfiSPxLus6zmw-11" style="edgeStyle=orthogonalEdgeStyle;rounded=0;orthogonalLoop=1;jettySize=auto;html=1;entryX=1;entryY=0.5;entryDx=0;entryDy=0;entryPerimeter=0;shadow=0;labelBackgroundColor=none;endArrow=block;endFill=0;endSize=8;strokeWidth=1;" parent="Mwt5COxjQra6mZKLzjHA-1" source="WRLbt8DxfiSPxLus6zmw-7" target="WRLbt8DxfiSPxLus6zmw-9" edge="1">
          <mxGeometry relative="1" as="geometry">
            <Array as="points">
              <mxPoint x="580" y="520" />
            </Array>
          </mxGeometry>
        </mxCell>
        <mxCell id="WRLbt8DxfiSPxLus6zmw-7" value="Voter tidak memiliki&lt;br&gt;hak suara" style="shape=parallelogram;html=1;strokeWidth=1;perimeter=parallelogramPerimeter;whiteSpace=wrap;rounded=0;size=0.11538461538461539;shadow=0;endArrow=block;endFill=0;endSize=8;fontSize=11;" parent="Mwt5COxjQra6mZKLzjHA-1" vertex="1">
          <mxGeometry x="520" y="170" width="130" height="60" as="geometry" />
        </mxCell>
        <mxCell id="WRLbt8DxfiSPxLus6zmw-9" value="End" style="strokeWidth=1;html=1;shape=mxgraph.flowchart.terminator;whiteSpace=wrap;rounded=0;shadow=0;endArrow=block;endFill=0;endSize=8;fontSize=11;" parent="Mwt5COxjQra6mZKLzjHA-1" vertex="1">
          <mxGeometry x="350" y="500" width="100" height="40" as="geometry" />
        </mxCell>
      </root>
    </mxGraphModel>
  </diagram>
  <diagram id="6KPAF4bK5VL0YBJbOq5A" name="voter-vote">
    <mxGraphModel dx="1054" dy="605" grid="1" gridSize="10" guides="1" tooltips="1" connect="1" arrows="1" fold="1" page="1" pageScale="1" pageWidth="827" pageHeight="1169" math="0" shadow="0">
      <root>
        <mxCell id="aOF4jAqoz3mTs8wp6q03-0" />
        <mxCell id="aOF4jAqoz3mTs8wp6q03-1" parent="aOF4jAqoz3mTs8wp6q03-0" />
        <mxCell id="1JsqNYJrCIrSMayMCd4B-4" style="edgeStyle=orthogonalEdgeStyle;rounded=0;orthogonalLoop=1;jettySize=auto;html=1;shadow=0;labelBackgroundColor=none;endArrow=block;endFill=0;endSize=8;strokeWidth=1;" parent="aOF4jAqoz3mTs8wp6q03-1" source="1JsqNYJrCIrSMayMCd4B-2" target="1JsqNYJrCIrSMayMCd4B-3" edge="1">
          <mxGeometry relative="1" as="geometry" />
        </mxCell>
        <mxCell id="1JsqNYJrCIrSMayMCd4B-2" value="Start" style="strokeWidth=1;html=1;shape=mxgraph.flowchart.terminator;whiteSpace=wrap;rounded=0;shadow=0;endArrow=block;endFill=0;endSize=8;fontSize=11;" parent="aOF4jAqoz3mTs8wp6q03-1" vertex="1">
          <mxGeometry x="350" width="100" height="40" as="geometry" />
        </mxCell>
        <mxCell id="1JsqNYJrCIrSMayMCd4B-6" style="edgeStyle=orthogonalEdgeStyle;rounded=0;orthogonalLoop=1;jettySize=auto;html=1;entryX=0.5;entryY=0;entryDx=0;entryDy=0;shadow=0;labelBackgroundColor=none;endArrow=block;endFill=0;endSize=8;strokeWidth=1;" parent="aOF4jAqoz3mTs8wp6q03-1" source="1JsqNYJrCIrSMayMCd4B-3" target="1JsqNYJrCIrSMayMCd4B-5" edge="1">
          <mxGeometry relative="1" as="geometry" />
        </mxCell>
        <mxCell id="1JsqNYJrCIrSMayMCd4B-3" value="Pilih election" style="shape=parallelogram;html=1;strokeWidth=1;perimeter=parallelogramPerimeter;whiteSpace=wrap;rounded=0;size=0.125;shadow=0;endArrow=block;endFill=0;endSize=8;fontSize=11;" parent="aOF4jAqoz3mTs8wp6q03-1" vertex="1">
          <mxGeometry x="340" y="80" width="120" height="40" as="geometry" />
        </mxCell>
        <mxCell id="1JsqNYJrCIrSMayMCd4B-8" style="edgeStyle=orthogonalEdgeStyle;rounded=0;orthogonalLoop=1;jettySize=auto;html=1;entryX=0.5;entryY=0;entryDx=0;entryDy=0;shadow=0;labelBackgroundColor=none;endArrow=block;endFill=0;endSize=8;strokeWidth=1;" parent="aOF4jAqoz3mTs8wp6q03-1" source="1JsqNYJrCIrSMayMCd4B-5" target="1JsqNYJrCIrSMayMCd4B-7" edge="1">
          <mxGeometry relative="1" as="geometry" />
        </mxCell>
        <mxCell id="1JsqNYJrCIrSMayMCd4B-5" value="Pilih candidate" style="shape=parallelogram;html=1;strokeWidth=1;perimeter=parallelogramPerimeter;whiteSpace=wrap;rounded=0;size=0.125;shadow=0;endArrow=block;endFill=0;endSize=8;fontSize=11;" parent="aOF4jAqoz3mTs8wp6q03-1" vertex="1">
          <mxGeometry x="340" y="160" width="120" height="40" as="geometry" />
        </mxCell>
        <mxCell id="1JsqNYJrCIrSMayMCd4B-10" style="edgeStyle=orthogonalEdgeStyle;rounded=0;orthogonalLoop=1;jettySize=auto;html=1;entryX=0.5;entryY=0;entryDx=0;entryDy=0;shadow=0;labelBackgroundColor=none;endArrow=block;endFill=0;endSize=8;strokeWidth=1;" parent="aOF4jAqoz3mTs8wp6q03-1" source="1JsqNYJrCIrSMayMCd4B-7" target="1JsqNYJrCIrSMayMCd4B-9" edge="1">
          <mxGeometry relative="1" as="geometry" />
        </mxCell>
        <mxCell id="1JsqNYJrCIrSMayMCd4B-7" value="Pengiriman ether dari super admin ke wallet address voter" style="rounded=0;whiteSpace=wrap;html=1;absoluteArcSize=1;strokeWidth=1;shadow=0;endArrow=block;endFill=0;endSize=8;fontSize=11;" parent="aOF4jAqoz3mTs8wp6q03-1" vertex="1">
          <mxGeometry x="320" y="240" width="160" height="80" as="geometry" />
        </mxCell>
        <mxCell id="1JsqNYJrCIrSMayMCd4B-12" style="edgeStyle=orthogonalEdgeStyle;rounded=0;orthogonalLoop=1;jettySize=auto;html=1;shadow=0;labelBackgroundColor=none;endArrow=block;endFill=0;endSize=8;strokeWidth=1;" parent="aOF4jAqoz3mTs8wp6q03-1" source="1JsqNYJrCIrSMayMCd4B-9" target="1JsqNYJrCIrSMayMCd4B-11" edge="1">
          <mxGeometry relative="1" as="geometry" />
        </mxCell>
        <mxCell id="1JsqNYJrCIrSMayMCd4B-9" value="Pemanggilan fungsi vote pada smart contract oleh voter" style="rounded=0;whiteSpace=wrap;html=1;absoluteArcSize=1;strokeWidth=1;shadow=0;endArrow=block;endFill=0;endSize=8;fontSize=11;" parent="aOF4jAqoz3mTs8wp6q03-1" vertex="1">
          <mxGeometry x="320" y="360" width="160" height="80" as="geometry" />
        </mxCell>
        <mxCell id="1JsqNYJrCIrSMayMCd4B-14" style="edgeStyle=orthogonalEdgeStyle;rounded=0;orthogonalLoop=1;jettySize=auto;html=1;entryX=0.5;entryY=0;entryDx=0;entryDy=0;entryPerimeter=0;shadow=0;labelBackgroundColor=none;endArrow=block;endFill=0;endSize=8;strokeWidth=1;" parent="aOF4jAqoz3mTs8wp6q03-1" source="1JsqNYJrCIrSMayMCd4B-11" target="1JsqNYJrCIrSMayMCd4B-13" edge="1">
          <mxGeometry relative="1" as="geometry" />
        </mxCell>
        <mxCell id="1JsqNYJrCIrSMayMCd4B-11" value="Suara voter sudah&lt;br&gt;direkam di&lt;br&gt;blockchain" style="shape=parallelogram;html=1;strokeWidth=1;perimeter=parallelogramPerimeter;whiteSpace=wrap;rounded=0;size=0.140625;shadow=0;endArrow=block;endFill=0;endSize=8;fontSize=11;" parent="aOF4jAqoz3mTs8wp6q03-1" vertex="1">
          <mxGeometry x="320" y="480" width="160" height="60" as="geometry" />
        </mxCell>
        <mxCell id="1JsqNYJrCIrSMayMCd4B-13" value="End" style="strokeWidth=1;html=1;shape=mxgraph.flowchart.terminator;whiteSpace=wrap;rounded=0;shadow=0;endArrow=block;endFill=0;endSize=8;fontSize=11;" parent="aOF4jAqoz3mTs8wp6q03-1" vertex="1">
          <mxGeometry x="350" y="584.5" width="100" height="45.5" as="geometry" />
        </mxCell>
      </root>
    </mxGraphModel>
  </diagram>
  <diagram id="jZHeeUcJeOSnmZnWs_X-" name="register-voter">
    <mxGraphModel dx="1054" dy="605" grid="1" gridSize="10" guides="1" tooltips="1" connect="1" arrows="1" fold="1" page="1" pageScale="1" pageWidth="827" pageHeight="1169" math="0" shadow="0">
      <root>
        <mxCell id="wQLUlvYFLEZ3ehAnuZKS-0" />
        <mxCell id="wQLUlvYFLEZ3ehAnuZKS-1" parent="wQLUlvYFLEZ3ehAnuZKS-0" />
        <mxCell id="o8DfcbBpgXiK4I0b_5Kz-4" style="edgeStyle=orthogonalEdgeStyle;rounded=0;orthogonalLoop=1;jettySize=auto;html=1;entryX=0.5;entryY=0;entryDx=0;entryDy=0;shadow=0;strokeWidth=1;labelBackgroundColor=none;endFill=0;endArrow=block;endSize=8;" parent="wQLUlvYFLEZ3ehAnuZKS-1" source="o8DfcbBpgXiK4I0b_5Kz-2" target="o8DfcbBpgXiK4I0b_5Kz-3" edge="1">
          <mxGeometry relative="1" as="geometry" />
        </mxCell>
        <mxCell id="o8DfcbBpgXiK4I0b_5Kz-2" value="Start" style="strokeWidth=1;html=1;shape=mxgraph.flowchart.terminator;whiteSpace=wrap;rounded=0;shadow=0;fontSize=11;endFill=0;endArrow=block;endSize=8;" parent="wQLUlvYFLEZ3ehAnuZKS-1" vertex="1">
          <mxGeometry x="350" width="100" height="40" as="geometry" />
        </mxCell>
        <mxCell id="FhxYv8EQkL2cwedzbS_k-1" style="edgeStyle=orthogonalEdgeStyle;rounded=0;orthogonalLoop=1;jettySize=auto;html=1;entryX=0.5;entryY=0;entryDx=0;entryDy=0;entryPerimeter=0;shadow=0;strokeWidth=1;labelBackgroundColor=none;endFill=0;endArrow=block;endSize=8;" parent="wQLUlvYFLEZ3ehAnuZKS-1" source="o8DfcbBpgXiK4I0b_5Kz-3" target="FhxYv8EQkL2cwedzbS_k-0" edge="1">
          <mxGeometry relative="1" as="geometry" />
        </mxCell>
        <mxCell id="o8DfcbBpgXiK4I0b_5Kz-3" value="Input username&lt;br&gt;dan password" style="shape=parallelogram;html=1;strokeWidth=1;perimeter=parallelogramPerimeter;whiteSpace=wrap;rounded=0;size=0.1607142857142857;shadow=0;fontSize=11;endFill=0;endArrow=block;endSize=8;" parent="wQLUlvYFLEZ3ehAnuZKS-1" vertex="1">
          <mxGeometry x="330" y="80" width="140" height="40" as="geometry" />
        </mxCell>
        <mxCell id="FhxYv8EQkL2cwedzbS_k-3" value="Yes" style="edgeStyle=orthogonalEdgeStyle;rounded=0;orthogonalLoop=1;jettySize=auto;html=1;entryX=0.5;entryY=0;entryDx=0;entryDy=0;shadow=0;strokeWidth=1;labelBackgroundColor=#ffffff;endFill=0;endArrow=block;endSize=8;" parent="wQLUlvYFLEZ3ehAnuZKS-1" source="FhxYv8EQkL2cwedzbS_k-0" target="FhxYv8EQkL2cwedzbS_k-2" edge="1">
          <mxGeometry relative="1" as="geometry" />
        </mxCell>
        <mxCell id="FhxYv8EQkL2cwedzbS_k-4" value="No" style="edgeStyle=orthogonalEdgeStyle;rounded=0;orthogonalLoop=1;jettySize=auto;html=1;entryX=1;entryY=0.5;entryDx=0;entryDy=0;shadow=0;strokeWidth=1;labelBackgroundColor=#ffffff;endFill=0;endArrow=block;endSize=8;" parent="wQLUlvYFLEZ3ehAnuZKS-1" source="FhxYv8EQkL2cwedzbS_k-0" target="o8DfcbBpgXiK4I0b_5Kz-3" edge="1">
          <mxGeometry relative="1" as="geometry">
            <Array as="points">
              <mxPoint x="520" y="200" />
              <mxPoint x="520" y="100" />
            </Array>
          </mxGeometry>
        </mxCell>
        <mxCell id="FhxYv8EQkL2cwedzbS_k-0" value="Unique&lt;br&gt;username?" style="strokeWidth=1;html=1;shape=mxgraph.flowchart.decision;whiteSpace=wrap;rounded=0;shadow=0;fontSize=11;endFill=0;endArrow=block;endSize=8;" parent="wQLUlvYFLEZ3ehAnuZKS-1" vertex="1">
          <mxGeometry x="330" y="160" width="140" height="80" as="geometry" />
        </mxCell>
        <mxCell id="FhxYv8EQkL2cwedzbS_k-6" style="edgeStyle=orthogonalEdgeStyle;rounded=0;orthogonalLoop=1;jettySize=auto;html=1;shadow=0;strokeWidth=1;labelBackgroundColor=none;endFill=0;endArrow=block;endSize=8;" parent="wQLUlvYFLEZ3ehAnuZKS-1" source="FhxYv8EQkL2cwedzbS_k-2" target="FhxYv8EQkL2cwedzbS_k-5" edge="1">
          <mxGeometry relative="1" as="geometry" />
        </mxCell>
        <mxCell id="FhxYv8EQkL2cwedzbS_k-2" value="Pembuatan&lt;br&gt;akun" style="rounded=0;whiteSpace=wrap;html=1;absoluteArcSize=1;strokeWidth=1;shadow=0;fontSize=11;endFill=0;endArrow=block;endSize=8;" parent="wQLUlvYFLEZ3ehAnuZKS-1" vertex="1">
          <mxGeometry x="350" y="280" width="100" height="80" as="geometry" />
        </mxCell>
        <mxCell id="FhxYv8EQkL2cwedzbS_k-8" style="edgeStyle=orthogonalEdgeStyle;rounded=0;orthogonalLoop=1;jettySize=auto;html=1;entryX=0.5;entryY=0;entryDx=0;entryDy=0;entryPerimeter=0;shadow=0;strokeWidth=1;labelBackgroundColor=none;endFill=0;endArrow=block;endSize=8;" parent="wQLUlvYFLEZ3ehAnuZKS-1" source="FhxYv8EQkL2cwedzbS_k-5" target="FhxYv8EQkL2cwedzbS_k-7" edge="1">
          <mxGeometry relative="1" as="geometry" />
        </mxCell>
        <mxCell id="FhxYv8EQkL2cwedzbS_k-5" value="Akun berhasil&lt;br&gt;dibuat" style="shape=parallelogram;html=1;strokeWidth=1;perimeter=parallelogramPerimeter;whiteSpace=wrap;rounded=0;size=0.1607142857142857;shadow=0;fontSize=11;endFill=0;endArrow=block;endSize=8;" parent="wQLUlvYFLEZ3ehAnuZKS-1" vertex="1">
          <mxGeometry x="330" y="400" width="140" height="60" as="geometry" />
        </mxCell>
        <mxCell id="FhxYv8EQkL2cwedzbS_k-7" value="End" style="strokeWidth=1;html=1;shape=mxgraph.flowchart.terminator;whiteSpace=wrap;rounded=0;shadow=0;fontSize=11;endFill=0;endArrow=block;endSize=8;" parent="wQLUlvYFLEZ3ehAnuZKS-1" vertex="1">
          <mxGeometry x="350" y="500" width="100" height="40" as="geometry" />
        </mxCell>
      </root>
    </mxGraphModel>
  </diagram>
  <diagram id="TrJYgEXSHD-xwLU-HIpQ" name="super-admin">
    <mxGraphModel dx="1506" dy="864" grid="1" gridSize="10" guides="1" tooltips="1" connect="1" arrows="1" fold="1" page="1" pageScale="1" pageWidth="827" pageHeight="1169" math="0" shadow="0">
      <root>
        <mxCell id="3krbl82GeuifmLo1iYU1-0" />
        <mxCell id="3krbl82GeuifmLo1iYU1-1" parent="3krbl82GeuifmLo1iYU1-0" />
        <mxCell id="nkTCHf3ftqsrkSzFwskD-5" style="edgeStyle=orthogonalEdgeStyle;rounded=0;orthogonalLoop=1;jettySize=auto;html=1;entryX=0.5;entryY=0;entryDx=0;entryDy=0;shadow=0;strokeWidth=1;labelBackgroundColor=none;endFill=0;endArrow=block;endSize=8;" parent="3krbl82GeuifmLo1iYU1-1" source="nkTCHf3ftqsrkSzFwskD-3" target="nkTCHf3ftqsrkSzFwskD-4" edge="1">
          <mxGeometry relative="1" as="geometry" />
        </mxCell>
        <mxCell id="nkTCHf3ftqsrkSzFwskD-3" value="Start" style="strokeWidth=1;html=1;shape=mxgraph.flowchart.terminator;whiteSpace=wrap;rounded=0;shadow=0;fontSize=11;endFill=0;endArrow=block;endSize=8;" parent="3krbl82GeuifmLo1iYU1-1" vertex="1">
          <mxGeometry x="390" width="100" height="40" as="geometry" />
        </mxCell>
        <mxCell id="J943NUbmLMf4ErTvraQw-1" style="edgeStyle=orthogonalEdgeStyle;rounded=0;orthogonalLoop=1;jettySize=auto;html=1;entryX=0.5;entryY=0;entryDx=0;entryDy=0;entryPerimeter=0;" edge="1" parent="3krbl82GeuifmLo1iYU1-1" source="nkTCHf3ftqsrkSzFwskD-4" target="J943NUbmLMf4ErTvraQw-0">
          <mxGeometry relative="1" as="geometry" />
        </mxCell>
        <mxCell id="nkTCHf3ftqsrkSzFwskD-4" value="Login" style="rounded=0;whiteSpace=wrap;html=1;absoluteArcSize=1;strokeWidth=1;shadow=0;fontSize=11;endFill=0;endArrow=block;endSize=8;" parent="3krbl82GeuifmLo1iYU1-1" vertex="1">
          <mxGeometry x="390" y="80" width="100" height="40" as="geometry" />
        </mxCell>
        <mxCell id="J943NUbmLMf4ErTvraQw-3" style="edgeStyle=orthogonalEdgeStyle;rounded=0;orthogonalLoop=1;jettySize=auto;html=1;shadow=0;strokeWidth=1;endFill=0;endArrow=block;endSize=8;" edge="1" parent="3krbl82GeuifmLo1iYU1-1" source="nkTCHf3ftqsrkSzFwskD-6" target="yFrxaJpt6O1BAIqjputA-1">
          <mxGeometry relative="1" as="geometry" />
        </mxCell>
        <mxCell id="nkTCHf3ftqsrkSzFwskD-6" value="Pembuatan akun&lt;br&gt;election authority" style="rounded=0;whiteSpace=wrap;html=1;absoluteArcSize=1;strokeWidth=1;shadow=0;fontSize=11;endFill=0;endArrow=block;endSize=8;" parent="3krbl82GeuifmLo1iYU1-1" vertex="1">
          <mxGeometry x="370" y="280" width="140" height="80" as="geometry" />
        </mxCell>
        <mxCell id="yFrxaJpt6O1BAIqjputA-4" style="edgeStyle=orthogonalEdgeStyle;rounded=0;orthogonalLoop=1;jettySize=auto;html=1;entryX=0.5;entryY=0;entryDx=0;entryDy=0;entryPerimeter=0;shadow=0;strokeWidth=1;labelBackgroundColor=none;endFill=0;endArrow=block;endSize=8;" parent="3krbl82GeuifmLo1iYU1-1" source="yFrxaJpt6O1BAIqjputA-1" target="yFrxaJpt6O1BAIqjputA-3" edge="1">
          <mxGeometry relative="1" as="geometry" />
        </mxCell>
        <mxCell id="yFrxaJpt6O1BAIqjputA-1" value="Cek election &lt;br&gt;yang siap di deploy" style="rounded=0;whiteSpace=wrap;html=1;absoluteArcSize=1;strokeWidth=1;shadow=0;fontSize=11;endFill=0;endArrow=block;endSize=8;" parent="3krbl82GeuifmLo1iYU1-1" vertex="1">
          <mxGeometry x="370" y="400" width="140" height="80" as="geometry" />
        </mxCell>
        <mxCell id="yFrxaJpt6O1BAIqjputA-6" value="True" style="edgeStyle=orthogonalEdgeStyle;rounded=0;orthogonalLoop=1;jettySize=auto;html=1;entryX=0.5;entryY=0;entryDx=0;entryDy=0;shadow=0;strokeWidth=1;labelBackgroundColor=#ffffff;endFill=0;endArrow=block;endSize=8;" parent="3krbl82GeuifmLo1iYU1-1" source="yFrxaJpt6O1BAIqjputA-3" target="yFrxaJpt6O1BAIqjputA-5" edge="1">
          <mxGeometry relative="1" as="geometry" />
        </mxCell>
        <mxCell id="yFrxaJpt6O1BAIqjputA-9" value="False" style="edgeStyle=orthogonalEdgeStyle;rounded=0;orthogonalLoop=1;jettySize=auto;html=1;shadow=0;strokeWidth=1;labelBackgroundColor=#ffffff;endFill=0;endArrow=block;endSize=8;" parent="3krbl82GeuifmLo1iYU1-1" source="yFrxaJpt6O1BAIqjputA-3" edge="1">
          <mxGeometry relative="1" as="geometry">
            <mxPoint x="440" y="760" as="targetPoint" />
            <Array as="points">
              <mxPoint x="560" y="560" />
              <mxPoint x="560" y="760" />
              <mxPoint x="440" y="760" />
            </Array>
          </mxGeometry>
        </mxCell>
        <mxCell id="yFrxaJpt6O1BAIqjputA-3" value="Ada?" style="strokeWidth=1;html=1;shape=mxgraph.flowchart.decision;whiteSpace=wrap;rounded=0;shadow=0;fontSize=11;endFill=0;endArrow=block;endSize=8;" parent="3krbl82GeuifmLo1iYU1-1" vertex="1">
          <mxGeometry x="390" y="520" width="100" height="80" as="geometry" />
        </mxCell>
        <mxCell id="yFrxaJpt6O1BAIqjputA-8" style="edgeStyle=orthogonalEdgeStyle;rounded=0;orthogonalLoop=1;jettySize=auto;html=1;entryX=0.5;entryY=0;entryDx=0;entryDy=0;entryPerimeter=0;shadow=0;strokeWidth=1;labelBackgroundColor=none;endFill=0;endArrow=block;endSize=8;" parent="3krbl82GeuifmLo1iYU1-1" source="yFrxaJpt6O1BAIqjputA-5" target="yFrxaJpt6O1BAIqjputA-7" edge="1">
          <mxGeometry relative="1" as="geometry" />
        </mxCell>
        <mxCell id="yFrxaJpt6O1BAIqjputA-5" value="Deploy election(smart contract) ke blockchain" style="rounded=0;whiteSpace=wrap;html=1;absoluteArcSize=1;strokeWidth=1;shadow=0;fontSize=11;endFill=0;endArrow=block;endSize=8;" parent="3krbl82GeuifmLo1iYU1-1" vertex="1">
          <mxGeometry x="370" y="640" width="140" height="80" as="geometry" />
        </mxCell>
        <mxCell id="yFrxaJpt6O1BAIqjputA-7" value="End" style="strokeWidth=1;html=1;shape=mxgraph.flowchart.terminator;whiteSpace=wrap;rounded=0;shadow=0;fontSize=11;endFill=0;endArrow=block;endSize=8;" parent="3krbl82GeuifmLo1iYU1-1" vertex="1">
          <mxGeometry x="390" y="800" width="100" height="40" as="geometry" />
        </mxCell>
        <mxCell id="J943NUbmLMf4ErTvraQw-2" value="True" style="edgeStyle=orthogonalEdgeStyle;rounded=0;orthogonalLoop=1;jettySize=auto;html=1;entryX=0.5;entryY=0;entryDx=0;entryDy=0;shadow=0;strokeWidth=1;endFill=0;endArrow=block;endSize=8;" edge="1" parent="3krbl82GeuifmLo1iYU1-1" source="J943NUbmLMf4ErTvraQw-0" target="nkTCHf3ftqsrkSzFwskD-6">
          <mxGeometry relative="1" as="geometry" />
        </mxCell>
        <mxCell id="J943NUbmLMf4ErTvraQw-4" value="False" style="edgeStyle=orthogonalEdgeStyle;rounded=0;orthogonalLoop=1;jettySize=auto;html=1;entryX=1;entryY=0.5;entryDx=0;entryDy=0;exitX=1;exitY=0.5;exitDx=0;exitDy=0;exitPerimeter=0;shadow=0;strokeWidth=1;endFill=0;endArrow=block;endSize=8;" edge="1" parent="3krbl82GeuifmLo1iYU1-1" source="J943NUbmLMf4ErTvraQw-0" target="yFrxaJpt6O1BAIqjputA-1">
          <mxGeometry relative="1" as="geometry">
            <mxPoint x="600" y="440" as="targetPoint" />
            <Array as="points">
              <mxPoint x="560" y="200" />
              <mxPoint x="560" y="440" />
            </Array>
          </mxGeometry>
        </mxCell>
        <mxCell id="J943NUbmLMf4ErTvraQw-0" value="Buat akun &lt;br&gt;election authority" style="strokeWidth=1;html=1;shape=mxgraph.flowchart.decision;whiteSpace=wrap;rounded=0;shadow=0;fontSize=11;endFill=0;endArrow=block;endSize=8;" vertex="1" parent="3krbl82GeuifmLo1iYU1-1">
          <mxGeometry x="367.5" y="160" width="145" height="80" as="geometry" />
        </mxCell>
      </root>
    </mxGraphModel>
  </diagram>
  <diagram id="SQOJzT5QKmh1tPZBoV-D" name="election-authority">
    <mxGraphModel dx="1506" dy="864" grid="1" gridSize="10" guides="1" tooltips="1" connect="1" arrows="1" fold="1" page="1" pageScale="1" pageWidth="827" pageHeight="1169" math="0" shadow="0">
      <root>
        <mxCell id="d_rH2mOjjOkwxsI1gPhi-0" />
        <mxCell id="d_rH2mOjjOkwxsI1gPhi-1" parent="d_rH2mOjjOkwxsI1gPhi-0" />
        <mxCell id="VWshbE4UlcZ2VC9inrHw-3" style="edgeStyle=orthogonalEdgeStyle;rounded=0;orthogonalLoop=1;jettySize=auto;html=1;entryX=0.5;entryY=0;entryDx=0;entryDy=0;labelBackgroundColor=none;shadow=0;strokeWidth=1;endFill=0;endArrow=block;endSize=8;" edge="1" parent="d_rH2mOjjOkwxsI1gPhi-1" source="VWshbE4UlcZ2VC9inrHw-0" target="VWshbE4UlcZ2VC9inrHw-1">
          <mxGeometry relative="1" as="geometry" />
        </mxCell>
        <mxCell id="VWshbE4UlcZ2VC9inrHw-0" value="Start" style="strokeWidth=1;html=1;shape=mxgraph.flowchart.terminator;whiteSpace=wrap;rounded=0;shadow=0;fontSize=11;endFill=0;endArrow=block;endSize=8;" vertex="1" parent="d_rH2mOjjOkwxsI1gPhi-1">
          <mxGeometry x="350" width="100" height="40" as="geometry" />
        </mxCell>
        <mxCell id="VWshbE4UlcZ2VC9inrHw-4" style="edgeStyle=orthogonalEdgeStyle;rounded=0;orthogonalLoop=1;jettySize=auto;html=1;entryX=0.5;entryY=0;entryDx=0;entryDy=0;labelBackgroundColor=none;shadow=0;strokeWidth=1;endFill=0;endArrow=block;endSize=8;" edge="1" parent="d_rH2mOjjOkwxsI1gPhi-1" source="VWshbE4UlcZ2VC9inrHw-1" target="VWshbE4UlcZ2VC9inrHw-2">
          <mxGeometry relative="1" as="geometry" />
        </mxCell>
        <mxCell id="VWshbE4UlcZ2VC9inrHw-1" value="Login" style="rounded=0;whiteSpace=wrap;html=1;absoluteArcSize=1;strokeWidth=1;shadow=0;fontSize=11;endFill=0;endArrow=block;endSize=8;" vertex="1" parent="d_rH2mOjjOkwxsI1gPhi-1">
          <mxGeometry x="350" y="80" width="100" height="40" as="geometry" />
        </mxCell>
        <mxCell id="VWshbE4UlcZ2VC9inrHw-6" style="edgeStyle=orthogonalEdgeStyle;rounded=0;orthogonalLoop=1;jettySize=auto;html=1;entryX=0.5;entryY=0;entryDx=0;entryDy=0;labelBackgroundColor=none;shadow=0;strokeWidth=1;endFill=0;endArrow=block;endSize=8;" edge="1" parent="d_rH2mOjjOkwxsI1gPhi-1" source="VWshbE4UlcZ2VC9inrHw-2" target="VWshbE4UlcZ2VC9inrHw-5">
          <mxGeometry relative="1" as="geometry" />
        </mxCell>
        <mxCell id="VWshbE4UlcZ2VC9inrHw-2" value="Pembuatan&lt;br&gt;election" style="rounded=0;whiteSpace=wrap;html=1;absoluteArcSize=1;strokeWidth=1;shadow=0;fontSize=11;endFill=0;endArrow=block;endSize=8;" vertex="1" parent="d_rH2mOjjOkwxsI1gPhi-1">
          <mxGeometry x="350" y="160" width="100" height="80" as="geometry" />
        </mxCell>
        <mxCell id="VWshbE4UlcZ2VC9inrHw-8" style="edgeStyle=orthogonalEdgeStyle;rounded=0;orthogonalLoop=1;jettySize=auto;html=1;labelBackgroundColor=none;shadow=0;strokeWidth=1;endFill=0;endArrow=block;endSize=8;" edge="1" parent="d_rH2mOjjOkwxsI1gPhi-1" source="VWshbE4UlcZ2VC9inrHw-5" target="VWshbE4UlcZ2VC9inrHw-7">
          <mxGeometry relative="1" as="geometry" />
        </mxCell>
        <mxCell id="VWshbE4UlcZ2VC9inrHw-5" value="Penambahan&lt;br&gt;kandidat" style="rounded=0;whiteSpace=wrap;html=1;absoluteArcSize=1;strokeWidth=1;shadow=0;fontSize=11;endFill=0;endArrow=block;endSize=8;" vertex="1" parent="d_rH2mOjjOkwxsI1gPhi-1">
          <mxGeometry x="350" y="280" width="100" height="80" as="geometry" />
        </mxCell>
        <mxCell id="VWshbE4UlcZ2VC9inrHw-10" value="True" style="edgeStyle=orthogonalEdgeStyle;rounded=0;orthogonalLoop=1;jettySize=auto;html=1;entryX=0.5;entryY=0;entryDx=0;entryDy=0;labelBackgroundColor=#ffffff;shadow=0;strokeWidth=1;endFill=0;endArrow=block;endSize=8;" edge="1" parent="d_rH2mOjjOkwxsI1gPhi-1" source="VWshbE4UlcZ2VC9inrHw-7" target="VWshbE4UlcZ2VC9inrHw-9">
          <mxGeometry relative="1" as="geometry" />
        </mxCell>
        <mxCell id="VWshbE4UlcZ2VC9inrHw-12" value="False" style="edgeStyle=orthogonalEdgeStyle;rounded=0;orthogonalLoop=1;jettySize=auto;html=1;labelBackgroundColor=#ffffff;shadow=0;strokeWidth=1;endFill=0;endArrow=block;endSize=8;" edge="1" parent="d_rH2mOjjOkwxsI1gPhi-1" source="VWshbE4UlcZ2VC9inrHw-7">
          <mxGeometry relative="1" as="geometry">
            <mxPoint x="400" y="380" as="targetPoint" />
            <Array as="points">
              <mxPoint x="520" y="440" />
              <mxPoint x="520" y="380" />
            </Array>
          </mxGeometry>
        </mxCell>
        <mxCell id="VWshbE4UlcZ2VC9inrHw-7" value="Election dideploy&lt;br&gt;super-admin" style="strokeWidth=1;html=1;shape=mxgraph.flowchart.decision;whiteSpace=wrap;rounded=0;shadow=0;fontSize=11;endFill=0;endArrow=block;endSize=8;" vertex="1" parent="d_rH2mOjjOkwxsI1gPhi-1">
          <mxGeometry x="330" y="400" width="140" height="80" as="geometry" />
        </mxCell>
        <mxCell id="VWshbE4UlcZ2VC9inrHw-14" style="edgeStyle=orthogonalEdgeStyle;rounded=0;orthogonalLoop=1;jettySize=auto;html=1;entryX=0.5;entryY=0;entryDx=0;entryDy=0;entryPerimeter=0;labelBackgroundColor=none;shadow=0;strokeWidth=1;endFill=0;endArrow=block;endSize=8;" edge="1" parent="d_rH2mOjjOkwxsI1gPhi-1" source="VWshbE4UlcZ2VC9inrHw-9" target="VWshbE4UlcZ2VC9inrHw-13">
          <mxGeometry relative="1" as="geometry" />
        </mxCell>
        <mxCell id="VWshbE4UlcZ2VC9inrHw-9" value="Mulai election" style="rounded=0;whiteSpace=wrap;html=1;absoluteArcSize=1;strokeWidth=1;shadow=0;fontSize=11;endFill=0;endArrow=block;endSize=8;" vertex="1" parent="d_rH2mOjjOkwxsI1gPhi-1">
          <mxGeometry x="350" y="520" width="100" height="80" as="geometry" />
        </mxCell>
        <mxCell id="VWshbE4UlcZ2VC9inrHw-13" value="End" style="strokeWidth=1;html=1;shape=mxgraph.flowchart.terminator;whiteSpace=wrap;rounded=0;shadow=0;fontSize=11;endFill=0;endArrow=block;endSize=8;" vertex="1" parent="d_rH2mOjjOkwxsI1gPhi-1">
          <mxGeometry x="350" y="640" width="100" height="40" as="geometry" />
        </mxCell>
      </root>
    </mxGraphModel>
  </diagram>
  <diagram id="YFJWeduM4LOEO5c-7_Ff" name="voter">
    <mxGraphModel dx="1054" dy="1774" grid="1" gridSize="10" guides="1" tooltips="1" connect="1" arrows="1" fold="1" page="1" pageScale="1" pageWidth="827" pageHeight="1169" math="0" shadow="0">
      <root>
        <mxCell id="6bb3OSaucYZ7uvbs9OI--0" />
        <mxCell id="6bb3OSaucYZ7uvbs9OI--1" parent="6bb3OSaucYZ7uvbs9OI--0" />
        <mxCell id="ugINQUeTiWOiJsiFg2dq-4" style="edgeStyle=orthogonalEdgeStyle;rounded=0;orthogonalLoop=1;jettySize=auto;html=1;entryX=0.5;entryY=0;entryDx=0;entryDy=0;labelBackgroundColor=none;shadow=0;strokeWidth=1;endFill=0;endArrow=block;endSize=8;" parent="6bb3OSaucYZ7uvbs9OI--1" source="6bb3OSaucYZ7uvbs9OI--2" target="ugINQUeTiWOiJsiFg2dq-3" edge="1">
          <mxGeometry relative="1" as="geometry" />
        </mxCell>
        <mxCell id="6bb3OSaucYZ7uvbs9OI--2" value="Start" style="strokeWidth=1;html=1;shape=mxgraph.flowchart.terminator;whiteSpace=wrap;rounded=0;shadow=0;fontSize=11;endFill=0;endArrow=block;endSize=8;" parent="6bb3OSaucYZ7uvbs9OI--1" vertex="1">
          <mxGeometry x="390" y="-40" width="100" height="40" as="geometry" />
        </mxCell>
        <mxCell id="QEUpBd-l5cEA-Li0FSkZ-1" style="edgeStyle=orthogonalEdgeStyle;rounded=0;orthogonalLoop=1;jettySize=auto;html=1;entryX=0.5;entryY=0;entryDx=0;entryDy=0;labelBackgroundColor=none;shadow=0;strokeWidth=1;endFill=0;endArrow=block;endSize=8;" parent="6bb3OSaucYZ7uvbs9OI--1" source="ugINQUeTiWOiJsiFg2dq-3" target="QEUpBd-l5cEA-Li0FSkZ-0" edge="1">
          <mxGeometry relative="1" as="geometry" />
        </mxCell>
        <mxCell id="ugINQUeTiWOiJsiFg2dq-3" value="Login" style="rounded=0;whiteSpace=wrap;html=1;absoluteArcSize=1;strokeWidth=1;shadow=0;fontSize=11;endFill=0;endArrow=block;endSize=8;" parent="6bb3OSaucYZ7uvbs9OI--1" vertex="1">
          <mxGeometry x="390" y="40" width="100" height="40" as="geometry" />
        </mxCell>
        <mxCell id="QEUpBd-l5cEA-Li0FSkZ-3" style="edgeStyle=orthogonalEdgeStyle;rounded=0;orthogonalLoop=1;jettySize=auto;html=1;labelBackgroundColor=none;shadow=0;strokeWidth=1;endFill=0;endArrow=block;endSize=8;" parent="6bb3OSaucYZ7uvbs9OI--1" source="QEUpBd-l5cEA-Li0FSkZ-0" target="QEUpBd-l5cEA-Li0FSkZ-2" edge="1">
          <mxGeometry relative="1" as="geometry" />
        </mxCell>
        <mxCell id="QEUpBd-l5cEA-Li0FSkZ-0" value="Daftar ke&lt;br&gt;sebuah election" style="rounded=0;whiteSpace=wrap;html=1;absoluteArcSize=1;strokeWidth=1;shadow=0;fontSize=11;endFill=0;endArrow=block;endSize=8;" parent="6bb3OSaucYZ7uvbs9OI--1" vertex="1">
          <mxGeometry x="390" y="120" width="100" height="80" as="geometry" />
        </mxCell>
        <mxCell id="3zyKbW7GGpr6YfBnWDrO-2" value="False" style="edgeStyle=orthogonalEdgeStyle;rounded=0;orthogonalLoop=1;jettySize=auto;html=1;entryX=0;entryY=0.5;entryDx=0;entryDy=0;entryPerimeter=0;labelBackgroundColor=#ffffff;shadow=0;strokeWidth=1;endFill=0;endArrow=block;endSize=8;" parent="6bb3OSaucYZ7uvbs9OI--1" source="QEUpBd-l5cEA-Li0FSkZ-2" target="3zyKbW7GGpr6YfBnWDrO-1" edge="1">
          <mxGeometry relative="1" as="geometry" />
        </mxCell>
        <mxCell id="3zyKbW7GGpr6YfBnWDrO-4" value="True" style="edgeStyle=orthogonalEdgeStyle;rounded=0;orthogonalLoop=1;jettySize=auto;html=1;entryX=0.5;entryY=0;entryDx=0;entryDy=0;labelBackgroundColor=#ffffff;shadow=0;strokeWidth=1;endFill=0;endArrow=block;endSize=8;" parent="6bb3OSaucYZ7uvbs9OI--1" source="QEUpBd-l5cEA-Li0FSkZ-2" target="3zyKbW7GGpr6YfBnWDrO-0" edge="1">
          <mxGeometry relative="1" as="geometry" />
        </mxCell>
        <mxCell id="QEUpBd-l5cEA-Li0FSkZ-2" value="Diterima" style="strokeWidth=1;html=1;shape=mxgraph.flowchart.decision;whiteSpace=wrap;rounded=0;shadow=0;fontSize=11;endFill=0;endArrow=block;endSize=8;" parent="6bb3OSaucYZ7uvbs9OI--1" vertex="1">
          <mxGeometry x="390" y="280" width="100" height="80" as="geometry" />
        </mxCell>
        <mxCell id="3zyKbW7GGpr6YfBnWDrO-6" style="edgeStyle=orthogonalEdgeStyle;rounded=0;orthogonalLoop=1;jettySize=auto;html=1;entryX=0.5;entryY=0;entryDx=0;entryDy=0;entryPerimeter=0;labelBackgroundColor=none;shadow=0;strokeWidth=1;endFill=0;endArrow=block;endSize=8;" parent="6bb3OSaucYZ7uvbs9OI--1" source="3zyKbW7GGpr6YfBnWDrO-0" target="3zyKbW7GGpr6YfBnWDrO-5" edge="1">
          <mxGeometry relative="1" as="geometry" />
        </mxCell>
        <mxCell id="3zyKbW7GGpr6YfBnWDrO-0" value="Melihat&lt;br&gt;kandidat" style="rounded=0;whiteSpace=wrap;html=1;absoluteArcSize=1;strokeWidth=1;shadow=0;fontSize=11;endFill=0;endArrow=block;endSize=8;" parent="6bb3OSaucYZ7uvbs9OI--1" vertex="1">
          <mxGeometry x="390" y="400" width="100" height="80" as="geometry" />
        </mxCell>
        <mxCell id="3zyKbW7GGpr6YfBnWDrO-3" value="False" style="edgeStyle=orthogonalEdgeStyle;rounded=0;orthogonalLoop=1;jettySize=auto;html=1;labelBackgroundColor=#ffffff;shadow=0;strokeWidth=1;endFill=0;endArrow=block;endSize=8;entryX=1;entryY=0.5;entryDx=0;entryDy=0;" parent="6bb3OSaucYZ7uvbs9OI--1" source="3zyKbW7GGpr6YfBnWDrO-1" edge="1" target="QEUpBd-l5cEA-Li0FSkZ-0">
          <mxGeometry relative="1" as="geometry">
            <mxPoint x="440" y="240" as="targetPoint" />
            <Array as="points">
              <mxPoint x="610" y="160" />
            </Array>
          </mxGeometry>
        </mxCell>
        <mxCell id="3zyKbW7GGpr6YfBnWDrO-12" style="edgeStyle=orthogonalEdgeStyle;rounded=0;orthogonalLoop=1;jettySize=auto;html=1;labelBackgroundColor=none;shadow=0;strokeWidth=1;endFill=0;endArrow=block;endSize=8;" parent="6bb3OSaucYZ7uvbs9OI--1" source="3zyKbW7GGpr6YfBnWDrO-1" edge="1">
          <mxGeometry relative="1" as="geometry">
            <mxPoint x="440" y="760" as="targetPoint" />
            <Array as="points">
              <mxPoint x="610" y="760" />
            </Array>
          </mxGeometry>
        </mxCell>
        <mxCell id="3zyKbW7GGpr6YfBnWDrO-1" value="Ditolak" style="strokeWidth=1;html=1;shape=mxgraph.flowchart.decision;whiteSpace=wrap;rounded=0;shadow=0;fontSize=11;endFill=0;endArrow=block;endSize=8;" parent="6bb3OSaucYZ7uvbs9OI--1" vertex="1">
          <mxGeometry x="560" y="280" width="100" height="80" as="geometry" />
        </mxCell>
        <mxCell id="3zyKbW7GGpr6YfBnWDrO-8" value="True" style="edgeStyle=orthogonalEdgeStyle;rounded=0;orthogonalLoop=1;jettySize=auto;html=1;entryX=0.5;entryY=0;entryDx=0;entryDy=0;labelBackgroundColor=#ffffff;shadow=0;strokeWidth=1;endFill=0;endArrow=block;endSize=8;" parent="6bb3OSaucYZ7uvbs9OI--1" source="3zyKbW7GGpr6YfBnWDrO-5" target="3zyKbW7GGpr6YfBnWDrO-7" edge="1">
          <mxGeometry relative="1" as="geometry" />
        </mxCell>
        <mxCell id="3zyKbW7GGpr6YfBnWDrO-9" value="False" style="edgeStyle=orthogonalEdgeStyle;rounded=0;orthogonalLoop=1;jettySize=auto;html=1;labelBackgroundColor=#ffffff;entryX=1;entryY=0.5;entryDx=0;entryDy=0;shadow=0;strokeWidth=1;endFill=0;endArrow=block;endSize=8;" parent="6bb3OSaucYZ7uvbs9OI--1" source="3zyKbW7GGpr6YfBnWDrO-5" target="3zyKbW7GGpr6YfBnWDrO-0" edge="1">
          <mxGeometry relative="1" as="geometry">
            <mxPoint x="530" y="440" as="targetPoint" />
            <Array as="points">
              <mxPoint x="560" y="555" />
              <mxPoint x="560" y="440" />
            </Array>
          </mxGeometry>
        </mxCell>
        <mxCell id="3zyKbW7GGpr6YfBnWDrO-5" value="Election&lt;br&gt;dimulai" style="strokeWidth=1;html=1;shape=mxgraph.flowchart.decision;whiteSpace=wrap;rounded=0;shadow=0;fontSize=11;endFill=0;endArrow=block;endSize=8;" parent="6bb3OSaucYZ7uvbs9OI--1" vertex="1">
          <mxGeometry x="390" y="510" width="100" height="90" as="geometry" />
        </mxCell>
        <mxCell id="3zyKbW7GGpr6YfBnWDrO-11" style="edgeStyle=orthogonalEdgeStyle;rounded=0;orthogonalLoop=1;jettySize=auto;html=1;entryX=0.5;entryY=0;entryDx=0;entryDy=0;entryPerimeter=0;labelBackgroundColor=none;shadow=0;strokeWidth=1;endFill=0;endArrow=block;endSize=8;" parent="6bb3OSaucYZ7uvbs9OI--1" source="3zyKbW7GGpr6YfBnWDrO-7" target="3zyKbW7GGpr6YfBnWDrO-10" edge="1">
          <mxGeometry relative="1" as="geometry" />
        </mxCell>
        <mxCell id="3zyKbW7GGpr6YfBnWDrO-7" value="Vote&lt;br&gt;kandidat" style="rounded=0;whiteSpace=wrap;html=1;absoluteArcSize=1;strokeWidth=1;shadow=0;fontSize=11;endFill=0;endArrow=block;endSize=8;" parent="6bb3OSaucYZ7uvbs9OI--1" vertex="1">
          <mxGeometry x="390" y="640" width="100" height="80" as="geometry" />
        </mxCell>
        <mxCell id="3zyKbW7GGpr6YfBnWDrO-10" value="End" style="strokeWidth=1;html=1;shape=mxgraph.flowchart.terminator;whiteSpace=wrap;rounded=0;shadow=0;fontSize=11;endFill=0;endArrow=block;endSize=8;" parent="6bb3OSaucYZ7uvbs9OI--1" vertex="1">
          <mxGeometry x="390" y="800" width="100" height="40" as="geometry" />
        </mxCell>
      </root>
    </mxGraphModel>
  </diagram>
</mxfile>
